<?xml version="1.0" encoding="utf-8"?>
<!-- Generator: Adobe Illustrator 25.2.3, SVG Export Plug-In . SVG Version: 6.00 Build 0)  -->
<svg version="1.1" id="Layer_1" xmlns="http://www.w3.org/2000/svg" xmlns:xlink="http://www.w3.org/1999/xlink" x="0px" y="0px"
	 viewBox="0 0 300 300" style="enable-background:new 0 0 300 300;" xml:space="preserve">
<style type="text/css">
	.st0{fill:none;stroke:#96CE8E;stroke-width:7;stroke-miterlimit:10;}
	.st1{fill:#96CE8E;}
</style>
<path class="st0" d="M47,264.2L24.1,7.2h251.8l-22.9,257l-103.1,28.6L47,264.2z"/>
<path class="st1" d="M76.6,123.6l2.8,31.5H150v-31.5H76.6z M73.8,91.3H150V59.8H71L73.8,91.3z M150,205.4l-0.1,0l-35.1-9.5
	l-2.2-25.1H80.9l4.4,49.5l64.6,17.9l0.1,0L150,205.4z"/>
<path class="st1" d="M149.9,123.6v31.5h38.8L185,196l-35.2,9.5v32.8l64.6-17.9l0.5-5.3l7.4-83l0.8-8.5l5.7-63.8h-79v31.5h44.4
	l-2.9,32.3H149.9z"/>
</svg>
