<?xml version="1.0" encoding="utf-8"?>
<!-- Generator: Adobe Illustrator 25.2.3, SVG Export Plug-In . SVG Version: 6.00 Build 0)  -->
<svg version="1.1" id="Layer_1" xmlns="http://www.w3.org/2000/svg" xmlns:xlink="http://www.w3.org/1999/xlink" x="0px" y="0px"
	 viewBox="0 0 300 300" style="enable-background:new 0 0 300 300;" xml:space="preserve">
<style type="text/css">
	.st0{fill:none;stroke:#96CE8E;stroke-width:7;stroke-miterlimit:10;}
</style>
<g>
	<path class="st0" d="M131.9,12.7h46v210.7c-23.5,4.5-40.9,6.2-59.6,6.2c-56.1-0.1-85.4-25.1-85.4-73.3c0-46.4,31-76.5,79-76.5
		c7.5,0,13.1,0.6,20,2.3L131.9,12.7L131.9,12.7z M133.5,120c-5.4-1.8-9.8-2.3-15.5-2.3c-23.2,0-36.7,14.2-36.7,39
		c0,24.2,12.8,37.6,36.4,37.6c5.1,0,9.2-0.3,15.8-1.2V120L133.5,120z"/>
	<path class="st0" d="M253,85.4v105.5c0,36.3-2.7,53.8-10.7,68.9c-7.5,14.5-17.3,23.6-37.6,33.7l-42.7-20.1
		c20.3-9.4,30.1-17.8,36.4-30.5c6.6-13,8.6-28.1,8.6-67.7V85.4L253,85.4L253,85.4z M202.5,12.7h46v46.7h-46V12.7z"/>
</g>
</svg>
