<svg id="Layer_1" data-name="Layer 1" xmlns="http://www.w3.org/2000/svg" viewBox="0 0 173.29 266.48"><path d="M173.8,4.1c-5.2-2.8-8.3,3.7-8.3,3.7L110.4,120.1c-18.5,31.2-22,30-22,30-3.4-1.9.1-11.2.1-11.2L108.6,91c24.6-45.8,6.5-48.2,6.5-48.2-30.3-4.5-40.3,83.4-40.3,83.4-3.7,28.5-23.9,58.4-23.9,58.4C19.5,235.5,9.7,200,9.7,200c-6.8,1.7-5.9,6.1-5.9,6.1,30.7,67,73.8-42.4,73.8-42.4,15.7,32.1,52.6-53.3,52.6-53.3-26,83.7-26.6,146.1-26.6,146.1-.7,11.4,6,13,6,13,9.4,1.9,9.2-8.4,9.2-8.4C126.4,103.4,176,14.3,176,14.3,179.3,6.9,173.8,4.1,173.8,4.1ZM105.7,61.3S98.5,86.4,92,94.1C92,94.1,96.3,70.9,105.7,61.3Z" transform="translate(-3.76 -3.4)"/><path d="M27.3,169.1s20.3,15.3,65.9,28.5c0,0,5.9,1,6,5.1,0,0,.6,7.2-6,6,0,0-50.2-15.3-70.4-32.9,0,0-4.7-3.3-4-5.7C18.8,170.2,19.3,164.6,27.3,169.1Z" transform="translate(-3.76 -3.4)"/><path d="M27,173.1s47.8,54.3,88.7,86.2c0,0,3.8,4.6,1.2,7.8,0,0-6,5.9-10.6.5,0,0-64.1-51.4-87.2-92.2,0,0-1.4-5.5.7-7C19.9,168.3,24,164.4,27,173.1Z" transform="translate(-3.76 -3.4)"/></svg>