<?xml version="1.0" encoding="utf-8"?>
<!-- Generator: Adobe Illustrator 25.2.3, SVG Export Plug-In . SVG Version: 6.00 Build 0)  -->
<svg version="1.1" id="Layer_1" xmlns="http://www.w3.org/2000/svg" xmlns:xlink="http://www.w3.org/1999/xlink" x="0px" y="0px"
	 viewBox="0 0 300 300" style="enable-background:new 0 0 300 300;" xml:space="preserve">
<style type="text/css">
	.st0{fill:none;stroke:#96CE8E;stroke-width:7;stroke-miterlimit:10;}
	.st1{fill:#96CE8E;}
</style>
<rect x="7" y="7" class="st0" width="286.9" height="286.9"/>
<path class="st1" d="M199.7,231.1c5.8,9.4,13.3,16.4,26.6,16.4c11.1,0,18.3-5.6,18.3-13.3c0-9.3-7.3-12.5-19.6-17.9l-6.8-2.9
	c-19.5-8.3-32.3-18.7-32.3-40.7c0-20.3,15.4-35.6,39.5-35.6c17.1,0,29.4,6,38.3,21.6l-20.9,13.5c-4.6-8.3-9.7-11.5-17.4-11.5
	c-8,0-12.9,5-12.9,11.5c0,8.1,5,11.4,16.6,16.4l6.8,2.9c22.9,9.8,35.8,19.9,35.8,42.4c0,24.2-19.1,37.6-44.7,37.6
	c-25,0-41.2-11.9-49.2-27.6L199.7,231.1z M104.4,233.5c4.2,7.6,8.1,13.9,17.4,13.9c8.9,0,14.4-3.4,14.4-17v-91.7h26.9v92.1
	c0,28-16.4,40.7-40.3,40.7c-21.6,0-34.1-11.1-40.4-24.6L104.4,233.5z"/>
</svg>
