<?xml version="1.0" encoding="utf-8"?>
<!-- Generator: Adobe Illustrator 25.2.3, SVG Export Plug-In . SVG Version: 6.00 Build 0)  -->
<svg version="1.1" id="Layer_1" xmlns="http://www.w3.org/2000/svg" xmlns:xlink="http://www.w3.org/1999/xlink" x="0px" y="0px"
	 viewBox="0 0 300 300" style="enable-background:new 0 0 300 300;" xml:space="preserve">
<style type="text/css">
	.st0{fill:none;stroke:#96CE8E;stroke-width:7;stroke-miterlimit:10;}
	.st1{fill:#96CE8E;}
</style>
<path class="st0" d="M277.6,5.3l-23.2,260.4l-104.5,29L45.7,265.7L22.4,5.3H277.6L277.6,5.3z"/>
<path class="st1" d="M104.8,90.5H150V58.6H69.9l0.8,8.6l7.8,88H150v-31.9h-42.3L104.8,90.5z M112,171.1H80l4.5,50.1l65.4,18.2l0.1,0
	v-33.2l-0.1,0l-35.6-9.6L112,171.1L112,171.1z"/>
<path class="st1" d="M149.9,155.1h39.3l-3.7,41.4l-35.6,9.6v33.2l65.5-18.1l0.5-5.4l7.5-84.1l0.8-8.6h-74.2V155.1L149.9,155.1z
	 M149.9,90.4L149.9,90.4l77.1,0.1l0.6-7.2l1.5-16.2l0.8-8.6h-80V90.4L149.9,90.4z"/>
</svg>
