<?xml version="1.0" encoding="utf-8"?>
<!-- Generator: Adobe Illustrator 25.2.3, SVG Export Plug-In . SVG Version: 6.00 Build 0)  -->
<svg version="1.1" id="Layer_1" xmlns="http://www.w3.org/2000/svg" xmlns:xlink="http://www.w3.org/1999/xlink" x="0px" y="0px"
	 viewBox="0 0 27.6 27.7" style="enable-background:new 0 0 27.6 27.7;" xml:space="preserve">
<style type="text/css">
	.st0{opacity:0.25;}
	.st1{fill:none;stroke:#90DD90;stroke-width:0.25;stroke-miterlimit:10;}
	.st2{fill:none;stroke:#000000;stroke-width:0.25;stroke-miterlimit:10;}
</style>
<g class="st0">
	<path class="st1" d="M0.7,5c0.3,0.1,0.5,0.2,0.9,0.1C2,5,2.9,4.5,3,4.1c0-0.2,0-0.3,0-0.4c0,0,0-0.1,0-0.1c0-0.2-0.1-0.4-0.1-0.5
		c0-0.1,0-0.1,0-0.2c0-0.4-0.1-0.8-0.2-1.2c0-0.1,0-0.2-0.1-0.4c0-0.2-0.1-0.3-0.1-0.5c0-0.1-0.1-0.3-0.1-0.4c0-0.1,0-0.1,0-0.2H2.2
		c0,0.1,0,0.2,0,0.2c0,0.1,0.1,0.3,0.1,0.4c0,0.1,0.1,0.3,0.1,0.5c0,0.1,0.1,0.2,0.1,0.4C2.6,2,2.7,2.4,2.8,2.8c0,0.1,0,0.2,0,0.2
		c0,0.2,0,0.3,0.1,0.5c0,0,0,0.1,0,0.1c0,0.1,0.1,0.2,0,0.4C2.8,4.4,2,4.9,1.6,5C1.2,5.1,1,5,0.7,5C0.5,4.8,0.4,4.7,0.2,4.7v0.1
		C0.4,4.8,0.5,4.9,0.7,5z"/>
	<path class="st2" d="M1.2,8.1c0.2,0,0.4,0.1,0.6,0.1c0.3,0.1,0.5,0.3,0.6,0.5c0,0.2,0,0.4,0,0.7c0,0.2,0,0.5,0,0.7
		c0.1,0.8,0.6,0.8,1.1,0.9c0.3,0,0.6,0.1,0.9,0.1c0.5,0,0.9-0.1,1-0.6c0.1-0.4,0-0.8,0-1.3c0-0.2-0.1-0.5-0.1-0.7
		c0-0.2,0-0.4-0.1-0.5C5.1,7.6,4.9,7.4,4.7,7.1C4.5,6.9,4.4,6.6,4.3,6.3c-0.1-0.5-0.1-0.8,0-1.1C4.4,4.9,4.6,4.9,5,4.9
		c0.1,0,0.3,0,0.4,0l0,0c0.1,0,0.2,0,0.3-0.1c0.6-0.2,0.5-0.6,0.4-1.1c0,0,0-0.1,0-0.1c0-0.2-0.1-0.3,0-0.5c0-0.1,0.1-0.2,0.2-0.4
		c0.1-0.1,0.2-0.2,0.2-0.4c0,0,0-0.1,0-0.1c0-0.1,0-0.1,0.1-0.2c0.1-0.2,0.1-0.3,0.2-0.5C7,1.5,7.1,1.3,7.1,1.2c0,0,0-0.1,0-0.2
		c-0.1-0.4-1-0.6-1-0.6c-0.1,0-0.2,0-0.4-0.1c-0.1,0-0.2,0-0.3-0.1c-0.1,0-0.2-0.1-0.3-0.1H5c0.2,0.1,0.3,0.1,0.5,0.2
		c0.1,0,0.2,0,0.3,0.1c0.1,0,0.2,0,0.3,0.1C6.4,0.5,7,0.7,7.1,1c0,0,0,0.1,0,0.2C7,1.3,6.9,1.4,6.8,1.6C6.8,1.7,6.7,1.9,6.6,2
		c0,0.1,0,0.1-0.1,0.2c0,0,0,0.1,0,0.1C6.4,2.5,6.4,2.7,6.3,2.8C6.2,2.9,6.1,3,6,3.2C6,3.3,6,3.5,6.1,3.7c0,0,0,0.1,0,0.1
		c0.1,0.5,0.1,0.9-0.4,1c-0.1,0-0.2,0-0.3,0l0,0c-0.1,0-0.3,0-0.4,0c-0.3,0-0.7,0-0.8,0.3c-0.1,0.3-0.1,0.7,0,1.1
		c0.1,0.4,0.2,0.6,0.4,0.9C4.8,7.4,5,7.7,5.1,8c0,0.2,0,0.3,0.1,0.5c0,0.2,0,0.5,0.1,0.7c0.1,0.5,0.1,0.9,0,1.3
		c-0.1,0.7-0.9,0.6-1.8,0.5c-0.6-0.1-0.9-0.2-1-0.9c0-0.2,0-0.5,0-0.7c0-0.3,0-0.5,0-0.7C2.4,8.4,2.2,8.3,1.8,8.2
		C1.6,8.1,1.4,8.1,1.2,8.1C1.1,8,1,8,0.9,8c-0.2,0-0.4-0.1-0.7-0.1v0.1C0.5,7.9,0.7,8,0.9,8C1,8.1,1.1,8.1,1.2,8.1z"/>
	<path class="st2" d="M0.7,3.3c0.1,0,0.1,0,0.2,0c0.1,0,0.2,0,0.3,0c0.2,0,0.5,0,0.7-0.2c0.3-0.2,0.3-0.5,0.3-1c0-0.3-0.1-0.6-0.2-1
		c-0.1-0.3-0.2-0.7-0.3-1H1.6c0,0.4,0.2,0.7,0.3,1c0.1,0.3,0.2,0.6,0.2,1c0,0.4,0,0.7-0.3,0.9C1.6,3.2,1.3,3.2,1.1,3.2
		c-0.1,0-0.2,0-0.3,0C0.8,3.2,0.7,3.2,0.7,3.3c0-0.1-0.1,0-0.1,0c-0.2,0-0.3,0.1-0.4,0.1v0.1C0.3,3.4,0.4,3.3,0.7,3.3
		C0.6,3.3,0.6,3.3,0.7,3.3z"/>
	<path class="st2" d="M9.5,0.8c0,0,0,0.1,0,0.1c0.1,0.5,0.4,0.7,0.8,0.7l0,0c0.1,0,0.1,0,0.2,0c0.4-0.1,1.3-0.3,1.7-0.5
		c0.4-0.2,0.6-0.6,0.7-1h0c-0.1,0.3-0.3,0.7-0.7,0.9c-0.4,0.2-1.2,0.5-1.7,0.5c-0.1,0-0.1,0-0.2,0l0,0C9.9,1.6,9.7,1.4,9.6,1
		C9.6,0.9,9.6,0.9,9.5,0.8c0-0.1,0-0.3,0-0.4c0-0.1,0-0.2,0.1-0.3h0c0,0.1-0.1,0.2-0.1,0.3C9.5,0.6,9.5,0.7,9.5,0.8z"/>
	<path class="st2" d="M0.3,1.4c0.2,0,0.4,0,0.6-0.2C1.1,1,1.1,0.6,1.1,0.1h0c0,0.4,0,0.9-0.2,1.1C0.8,1.4,0.6,1.4,0.3,1.4L0.3,1.4
		c-0.1,0-0.1,0-0.2,0v0C0.2,1.4,0.3,1.4,0.3,1.4L0.3,1.4z"/>
	<path class="st2" d="M0.3,0.4c0.1-0.1,0.1-0.2,0.1-0.3h0C0.4,0.3,0.4,0.4,0.3,0.4c-0.1,0-0.1,0-0.1,0c0,0,0,0,0,0v0c0,0,0,0,0,0
		C0.2,0.5,0.3,0.5,0.3,0.4z"/>
	<path class="st2" d="M3.7,2.6c0.1,0.1,0.1,0.1,0.2,0.1l0,0c0.1,0,0.2,0,0.2-0.1c0.2-0.2,0.3-0.5,0.2-0.7c0-0.1,0-0.1,0-0.2
		C4.3,1.3,4.2,0.9,4,0.7c-0.2-0.1-0.3-0.1-0.5,0C3.4,0.9,3.3,1.3,3.3,1.6c0,0.1,0,0.2,0.1,0.3C3.4,2.1,3.5,2.4,3.7,2.6z M3.5,0.8
		c0.1-0.1,0.1-0.1,0.2-0.1c0.1,0,0.1,0,0.2,0.1c0.3,0.2,0.3,0.6,0.4,0.9c0,0.1,0,0.2,0,0.2c0,0.2-0.1,0.5-0.2,0.7
		C4.1,2.6,4,2.7,3.9,2.7l0,0c-0.1,0-0.1,0-0.2-0.1C3.5,2.4,3.5,2.1,3.4,1.8c0-0.1,0-0.2-0.1-0.3C3.3,1.3,3.4,0.9,3.5,0.8z"/>
	<path class="st2" d="M13,2.7c-0.2-0.2-0.5-0.4-1.1-0.4c-0.1,0-0.2,0-0.3,0c-0.5,0-1.3,0.4-1.7,0.6C9.7,3.1,9.4,3.3,9.5,3.6
		c0.3,0.5,0.6,0.8,1.1,1.1c0.3,0.1,0.5,0.2,0.8,0.2c0,0,0.1,0,0.1,0l0,0c0.4,0,1-0.2,1.4-0.6c0.3-0.2,0.4-0.5,0.4-0.8
		C13.4,3.2,13.2,3,13,2.7z M12.9,4.4c-0.4,0.3-1,0.6-1.4,0.6c0,0-0.1,0-0.1,0c-0.2,0-0.5-0.1-0.8-0.2c-0.5-0.2-0.8-0.6-1.1-1.1
		C9.4,3.3,9.8,3.1,9.9,3c0.5-0.3,1.2-0.6,1.7-0.6c0.1,0,0.2,0,0.3,0c0.5,0,0.8,0.2,1.1,0.4c0.3,0.2,0.4,0.5,0.4,0.8
		C13.3,3.9,13.2,4.2,12.9,4.4z"/>
	<path class="st2" d="M12.3,3c-0.1-0.1-0.3-0.2-0.6-0.2c-0.5,0-1,0.2-1.1,0.7c0,0.1,0,0.1,0,0.2c0,0,0,0.1,0,0.1v0l0,0
		c0.2,0.5,0.6,0.6,1,0.6h0c0.5,0,1-0.3,1.1-0.8v0v0C12.6,3.3,12.4,3.1,12.3,3z M11.5,4.4L11.5,4.4c-0.4,0-0.8-0.2-1-0.6
		c0,0,0-0.1,0-0.1c0-0.1,0-0.1,0-0.2c0.1-0.4,0.7-0.6,1.1-0.6c0.2,0,0.4,0.1,0.6,0.2c0.2,0.2,0.3,0.4,0.3,0.6
		C12.5,4.1,12,4.4,11.5,4.4z"/>
	<path class="st2" d="M17.2,3.4c-0.1-0.1-0.2-0.1-0.4-0.1c-0.2,0-0.3,0.1-0.4,0.1c-0.1,0.1-0.2,0.2-0.3,0.3C16,3.9,15.9,4,15.8,4.1
		c-0.4,0.3-0.9,0.6-1.5,0.9c-0.2,0.1-0.5,0.2-0.7,0.4c-0.1,0.1-0.3,0.2-0.4,0.3c-0.1,0.1-0.2,0.2-0.3,0.2c-0.2,0.2-0.6,0.3-0.7,0.3
		c-0.2,0.1-0.5,0.2-0.6,0.2c-0.1,0-0.1,0-0.2,0c-0.2,0-0.3,0-0.4-0.1c-0.1,0-0.2-0.1-0.3-0.1c0,0-0.1,0-0.1,0
		c-0.4,0-0.6,0.4-0.7,0.6l0,0C9.7,7.4,9.6,8,9.6,8.7c0,0.5,0,0.7-0.2,0.9C9.3,9.8,9.2,9.9,9.1,10c-0.2,0.2-0.4,0.4-0.5,0.8
		c-0.1,0.4,0.1,0.8,0.3,1.2c0.3,0.3,0.6,0.5,1,0.5l0,0c0.1,0,0.3,0,0.4-0.1c0.4-0.2,1.1-0.9,1.3-1.3c0-0.1,0.1-0.1,0.1-0.2
		c0.2-0.4,0.3-0.7,0.6-1c0.2-0.2,0.5-0.4,0.7-0.5c0.3-0.1,0.5-0.1,0.9-0.2c0.4-0.1,0.8-0.1,1.2-0.3c0.5-0.4,1.1-1,1.5-1.6
		c0.2-0.3,0.4-0.7,0.5-1c0.1-0.3,0-0.7,0-1.1c0-0.1,0-0.2,0-0.3c0,0,0-0.1,0-0.2c0-0.1,0-0.2,0.1-0.4c0,0,0-0.1,0.1-0.1
		C17.4,4,17.5,3.6,17.2,3.4z M17.2,4.2c0,0,0,0.1-0.1,0.1c-0.1,0.1-0.1,0.3-0.1,0.4c0,0.1,0,0.1,0,0.2l0,0v0c0,0.1,0,0.2,0,0.3
		c0.1,0.4,0.1,0.8,0,1.1c-0.1,0.3-0.3,0.8-0.5,1c-0.3,0.6-1,1.1-1.5,1.5C14.9,9,14.4,9.1,14,9.1c-0.3,0-0.6,0.1-0.9,0.2
		c-0.3,0.1-0.5,0.3-0.8,0.5c-0.3,0.3-0.5,0.6-0.7,1c0,0.1-0.1,0.1-0.1,0.2c-0.2,0.5-0.9,1.2-1.3,1.3c-0.1,0-0.3,0.1-0.4,0.1l0,0
		c-0.4,0-0.7-0.2-1-0.5c-0.3-0.3-0.4-0.8-0.3-1.1c0-0.3,0.2-0.5,0.5-0.7c0.1-0.1,0.2-0.2,0.3-0.3c0.2-0.2,0.2-0.5,0.2-1
		c0-0.7,0.1-1.2,0.3-1.8l0,0c0.1-0.2,0.3-0.6,0.7-0.6c0,0,0.1,0,0.1,0c0.1,0,0.2,0,0.3,0.1c0.1,0,0.3,0.1,0.5,0.1c0.1,0,0.1,0,0.2,0
		c0.1,0,0.4-0.1,0.6-0.2c0.1,0,0.4-0.2,0.7-0.3c0.1-0.1,0.2-0.2,0.3-0.2c0.1-0.1,0.2-0.2,0.4-0.3c0.2-0.2,0.5-0.3,0.7-0.4
		c0.6-0.3,1.1-0.5,1.5-0.9C15.9,4,16,3.9,16.1,3.8c0.1-0.1,0.2-0.2,0.3-0.3c0.1-0.1,0.3-0.1,0.4-0.1c0.1,0,0.3,0,0.3,0.1
		C17.5,3.6,17.3,4,17.2,4.2z"/>
	<path class="st2" d="M6.6,6.6L6.6,6.6c0.1,0,0.2-0.1,0.3-0.2C7.1,6.3,7.1,6,7,5.8C7,5.7,6.9,5.5,6.8,5.5c-0.1,0-0.2,0-0.3,0.1
		C6.3,5.8,6.3,6.1,6.3,6.3C6.4,6.5,6.5,6.6,6.6,6.6z M6.5,5.6c0.1-0.1,0.1-0.1,0.2-0.1c0,0,0.1,0,0.1,0C6.9,5.6,7,5.7,7,5.8
		c0.1,0.2,0,0.4-0.1,0.6C6.9,6.5,6.8,6.6,6.6,6.6l0,0c-0.1,0-0.2-0.1-0.3-0.2C6.3,6.1,6.3,5.8,6.5,5.6z"/>
	<path class="st2" d="M15.2,5.5c0,0-0.1,0-0.1,0c-0.3,0-0.8,0.2-1.1,0.4c-0.1,0.1-0.1,0.1-0.2,0.2c-0.1,0.1-0.1,0.1-0.2,0.2
		c-0.2,0.2-0.5,0.3-0.8,0.5c-0.3,0.2-0.6,0.3-0.8,0.6c-0.1,0.1-0.2,0.3-0.2,0.5l0,0c0,0,0,0,0,0.1c0.1,0.4,0.3,0.7,0.8,0.7
		c0,0,0,0,0,0c0.1,0,0.2,0,0.4-0.1c0.2,0,0.3-0.1,0.5-0.1c0.7,0,1-0.1,1.4-0.6c0.1-0.2,0.3-0.5,0.4-0.8c0-0.2,0-0.4,0-0.5
		c0-0.1,0-0.2,0-0.3l0-0.1C15.5,5.9,15.5,5.6,15.2,5.5z M15.5,6.3L15.5,6.3c0,0.2,0,0.3,0,0.4c0,0.2,0,0.4,0,0.5
		c-0.1,0.3-0.2,0.6-0.4,0.8c-0.4,0.5-0.7,0.5-1.4,0.6c-0.2,0-0.4,0-0.5,0.1c-0.2,0-0.3,0.1-0.4,0.1c0,0,0,0,0,0
		c-0.5,0-0.7-0.4-0.8-0.7c0,0,0,0,0-0.1c0-0.3,0.1-0.4,0.2-0.5c0.2-0.2,0.5-0.4,0.8-0.6c0.3-0.1,0.5-0.3,0.8-0.5
		c0.1-0.1,0.1-0.1,0.2-0.2C13.9,6.1,13.9,6,14,6c0.3-0.2,0.7-0.4,1-0.4c0,0,0.1,0,0.1,0C15.5,5.6,15.5,5.9,15.5,6.3z"/>
	<path class="st2" d="M1.4,7.4c0.5,0.1,0.9,0.1,1.4,0.1c0,0,0.1,0,0.1,0c0.1,0,0.1,0,0.2,0c0,0,0.1,0,0.1,0l0,0c0,0,0,0,0,0
		c0,0,0,0,0,0l0,0v0c0-0.3,0.1-1-0.4-1.4l0,0C2.8,6,2.7,6,2.5,6C2.2,6,1.9,6,1.5,6.1C1.2,6.2,0.9,6.2,0.6,6.2c-0.1,0-0.3,0-0.4-0.1
		c0,0,0,0,0,0v0c0,0,0,0,0,0c0.1,0,0.3,0.1,0.4,0.1c0.3,0,0.6-0.1,0.9-0.1C1.9,6.1,2.2,6,2.5,6C2.7,6,2.8,6,2.9,6
		c0.5,0.3,0.4,1,0.4,1.3c0,0,0,0,0,0c0,0,0,0,0,0c0,0-0.1,0-0.1,0c-0.1,0-0.1,0-0.2,0c0,0-0.1,0-0.1,0l0,0C2.3,7.5,1.9,7.4,1.4,7.4
		C1.2,7.3,0.9,7.3,0.6,7.2C0.5,7.1,0.3,7.1,0.2,7v0c0.2,0,0.3,0.1,0.5,0.1C0.9,7.3,1.1,7.4,1.4,7.4z"/>
	<path class="st2" d="M3.2,9.9c0.1,0.4,0.5,0.6,0.9,0.6l0,0c0.2,0,0.4-0.1,0.5-0.2c0.1-0.1,0.2-0.4,0.1-0.6C4.6,9.3,4.3,8.7,4,8.5
		C4,8.5,3.9,8.4,3.8,8.4c0,0-0.1,0-0.1,0c-0.1,0.1-0.4,0.8-0.5,1C3.2,9.6,3.1,9.7,3.2,9.9L3.2,9.9z M3.2,9.5c0.1-0.3,0.4-1,0.5-1
		c0,0,0.1,0,0.1,0c0.1,0,0.1,0,0.2,0.1c0.3,0.2,0.6,0.8,0.7,1.1c0,0.3,0,0.5-0.1,0.6c-0.1,0.1-0.3,0.2-0.5,0.2l0,0
		c-0.4,0-0.8-0.2-0.9-0.6C3.2,9.7,3.2,9.7,3.2,9.5z"/>
	<path class="st2" d="M7.4,8.5c0,0-0.1-0.1-0.2-0.1c0,0-0.1,0-0.1,0C6.6,8.5,6.2,9.2,6.2,9.6c0,0.4,0.3,0.7,0.6,0.7l0,0
		c0.1,0,0.1,0,0.2,0c0.4-0.1,0.6-0.5,0.6-0.9C7.7,9,7.6,8.7,7.4,8.5z M7.6,9.4C7.6,9.7,7.4,10.2,7,10.3c-0.1,0-0.1,0-0.2,0l0,0
		c-0.3,0-0.6-0.3-0.6-0.7c0-0.4,0.4-1.1,0.8-1.1c0,0,0.1,0,0.1,0c0.1,0,0.2,0.1,0.2,0.1C7.6,8.7,7.7,9,7.6,9.4z"/>
	<path class="st2" d="M0.6,10.9c0.2-0.6,0.1-1.1-0.3-1.4C0.3,9.4,0.2,9.4,0.2,9.3v0c0.1,0,0.1,0.1,0.2,0.1
		C0.7,9.9,0.8,10.3,0.6,10.9c-0.1,0.2-0.2,0.4-0.4,0.6c0,0-0.1,0.1-0.1,0.1v0c0-0.1,0.1-0.1,0.1-0.2C0.4,11.4,0.5,11.2,0.6,10.9z"/>
	<path class="st2" d="M18.4,13.5c-0.1,0-0.2,0-0.3,0.1c-0.1,0.1-0.2,0.3-0.2,0.5c-0.1,0.2,0,0.5,0.1,0.7c0.1,0.1,0.2,0.1,0.3,0.1
		l0,0c0,0,0,0,0,0c0.2,0,0.3-0.1,0.5-0.3c0.1-0.2,0.2-0.4,0.2-0.5C18.9,13.7,18.6,13.5,18.4,13.5z M18.7,14.6
		c-0.1,0.2-0.3,0.3-0.5,0.3c0,0,0,0,0,0l0,0c-0.1,0-0.2,0-0.3-0.1c-0.1-0.2-0.1-0.4-0.1-0.6c0-0.2,0.1-0.4,0.2-0.5
		c0.1-0.1,0.2-0.1,0.3-0.1c0.2,0,0.5,0.2,0.5,0.6C18.9,14.2,18.8,14.4,18.7,14.6z"/>
	<path class="st2" d="M12,14.6c0.1,0.1,0.1,0.2,0.2,0.3c0,0.1,0.1,0.1,0.1,0.2c0.1,0.3,0.3,0.6,0.5,0.6l0,0c0.1,0,0.2-0.1,0.3-0.2
		c0.3-0.3,0.5-0.8,0.4-1.1c0-0.2-0.2-0.3-0.4-0.4c-0.1,0-0.2,0-0.3,0c0,0-0.1,0-0.1,0c0,0-0.1,0-0.1,0c-0.1,0-0.1,0-0.1,0
		c-0.1,0-0.2,0-0.3-0.1c-0.1,0-0.2-0.1-0.3-0.1c0,0-0.1,0-0.1,0l0,0c-0.1,0-0.1,0.1-0.1,0.2v0C11.7,14.2,11.8,14.4,12,14.6z
		 M11.8,13.8c0,0,0.1,0,0.1,0c0.1,0,0.2,0,0.3,0.1c0.1,0,0.2,0.1,0.3,0.1c0,0,0.1,0,0.2,0c0,0,0.1,0,0.1,0c0,0,0.1,0,0.1,0
		c0.1,0,0.2,0,0.3,0c0.2,0,0.3,0.2,0.3,0.3c0.1,0.4-0.1,0.9-0.4,1.1c-0.1,0.1-0.2,0.2-0.3,0.2l0,0c-0.2,0-0.4-0.3-0.5-0.6
		c0-0.1-0.1-0.2-0.1-0.2c-0.1-0.1-0.1-0.2-0.2-0.3c-0.1-0.2-0.2-0.3-0.3-0.5C11.7,13.9,11.7,13.9,11.8,13.8z"/>
	<path class="st2" d="M4,16.8L4,16.8C4.1,16.9,4.5,17,4.8,17c0.3,0,0.5-0.1,0.6-0.4c0-0.2,0-0.3-0.1-0.4c-0.2-0.2-0.5-0.3-0.8-0.3
		c0,0,0,0,0,0h0c-0.2,0-0.7,0-0.9,0.2c-0.1,0.1-0.1,0.1-0.1,0.2C3.4,16.6,3.8,16.7,4,16.8z M3.5,16.3c0-0.1,0.1-0.1,0.1-0.2
		C3.8,16,4.3,16,4.5,15.9h0c0,0,0,0,0,0c0.3,0,0.6,0.1,0.7,0.3c0.1,0.1,0.1,0.3,0.1,0.4c0,0.2-0.2,0.3-0.6,0.3
		c-0.3,0-0.7-0.1-0.8-0.2l0,0C3.8,16.7,3.4,16.6,3.5,16.3z"/>
	<path class="st1" d="M19.9,1.3c-0.1,0.2-0.2,0.5-0.2,0.7c0,0.2-0.2,0.4-0.4,0.5c-0.1,0.1-0.2,0.1-0.4,0c-0.5-0.2-1-0.7-1.2-0.9
		c0,0-0.1-0.1-0.1-0.1c-0.2-0.2-0.4-0.5-0.7-0.6c-0.2-0.1-0.6-0.2-1.2-0.1l0,0c-0.3,0-0.7,0-0.8-0.1c-0.1-0.1-0.1-0.2,0-0.3
		c0-0.1,0.1-0.2,0.2-0.3H15c-0.1,0.1-0.1,0.2-0.1,0.3c-0.1,0.2,0,0.3,0,0.4C15,1,15.4,1,15.7,1l0,0c0.6,0,0.9,0,1.2,0.1
		c0.3,0.2,0.5,0.4,0.7,0.6c0,0,0.1,0.1,0.1,0.1c0.2,0.2,0.7,0.7,1.2,0.9c0.1,0,0.1,0,0.2,0c0.1,0,0.2,0,0.2-0.1
		c0.2-0.1,0.3-0.3,0.4-0.6C19.8,1.8,19.9,1.6,19.9,1.3c0.2-0.2,0.3-0.4,0.3-0.7c0-0.2,0.1-0.3,0.1-0.5c0,0,0,0,0,0h-0.1
		c0,0.2-0.1,0.3-0.1,0.5C20.1,0.8,20,1.1,19.9,1.3z"/>
	<path class="st2" d="M18.7,0.2c0,0,0.1,0,0.1,0h-0.3C18.6,0.2,18.7,0.2,18.7,0.2z"/>
	<path class="st2" d="M25.2,1.1c-0.1,0.2-0.2,0.4-0.3,0.7c-0.1,0.3,0.1,0.7,0.2,1c0.1,0.2,0.1,0.3,0.2,0.5c0.1,0.4,0,0.7,0,1
		c0,0,0,0.1,0,0.1c0,0.2,0,0.5,0.1,0.6c0.1,0.2,0.3,0.3,0.6,0.3c0,0,0.1,0,0.1,0c0.3,0,0.5-0.1,0.7-0.2C26.8,5,27,4.9,27.3,4.8
		c0,0,0.1,0,0.1,0V4.7c-0.1,0-0.1,0-0.2,0c-0.3,0-0.5,0.2-0.7,0.3c-0.2,0.1-0.4,0.2-0.6,0.2c0,0-0.1,0-0.1,0c-0.2,0-0.4-0.1-0.5-0.3
		c-0.1-0.2-0.1-0.4-0.1-0.6c0,0,0-0.1,0-0.1c0.1-0.3,0.1-0.7,0-1.1c0-0.2-0.1-0.3-0.2-0.5c-0.1-0.3-0.3-0.6-0.2-1
		C25,1.5,25.1,1.3,25.2,1.1c0.2-0.2,0.4-0.5,0.3-0.9h-0.1C25.5,0.5,25.3,0.8,25.2,1.1z"/>
	<path class="st2" d="M21.5,0.4c0.1,0.1,0.2,0.2,0.3,0.3C22,1,22.3,1.2,22.6,1.4c0.2,0.1,0.4,0.2,0.6,0.3c0.3,0.3,0.5,0.5,0.4,1
		c-0.1,0.4-0.2,0.9-0.3,1.2c-0.1,0.2-0.2,0.4-0.4,0.6c-0.3,0.3-0.5,0.6-0.4,1.1c0.1,0.2,0.2,0.5,0.3,0.8c0.1,0.2,0.1,0.3,0.2,0.5
		C22.9,7.1,23,7.3,23,7.5c0,0,0,0.1,0,0.1C23.1,7.9,23.3,8,23.6,8c0.1,0,0.2,0,0.4,0c0.2,0,0.4-0.1,0.6-0.1c0.2-0.1,0.4-0.1,0.6-0.1
		c0.1,0,0.2,0,0.3,0c0.3,0,0.6,0,0.9,0.1c0.1,0,0.2,0,0.4,0c0.2,0,0.4,0.1,0.6,0.1V7.8c-0.2,0-0.4,0-0.6-0.1c-0.1,0-0.2,0-0.4,0
		c-0.3,0-0.6-0.1-0.9-0.1c-0.1,0-0.2,0-0.3,0c-0.2,0-0.4,0.1-0.6,0.1c-0.2,0.1-0.4,0.1-0.6,0.1c-0.2,0-0.3,0-0.4,0
		c-0.3,0-0.5-0.1-0.5-0.4c0,0,0-0.1,0-0.1c0-0.2-0.1-0.4-0.2-0.6c-0.1-0.2-0.1-0.3-0.2-0.5c-0.1-0.3-0.2-0.5-0.2-0.8
		c-0.1-0.5,0.1-0.8,0.4-1.1c0.2-0.2,0.3-0.3,0.4-0.6c0.1-0.3,0.3-0.8,0.3-1.2c0.1-0.6-0.1-0.8-0.4-1.1c-0.2-0.1-0.4-0.2-0.6-0.3
		c-0.3-0.2-0.6-0.3-0.9-0.6C21.7,0.6,21.6,0.5,21.5,0.4c0-0.1,0-0.2-0.1-0.3h-0.1c0,0,0,0,0,0C21.4,0.2,21.4,0.3,21.5,0.4z"/>
	<path class="st2" d="M26,0.5c0,0.1,0,0.2,0,0.3c0,0.2-0.1,0.3-0.2,0.5c-0.1,0.3-0.2,0.5-0.2,1l0,0c0,0.1,0.1,0.3,0.1,0.4
		c0.1,0.5,0.2,1,0.6,1.2c0,0,0.1,0,0.2,0c0.1,0,0.1,0,0.2,0c0.2,0,0.4-0.2,0.6-0.3c0.1-0.1,0.2-0.1,0.2-0.2V3.4
		c-0.1,0.1-0.2,0.1-0.3,0.2c-0.2,0.1-0.3,0.3-0.6,0.3c0,0-0.1,0-0.2,0c-0.1,0-0.1,0-0.1,0c-0.3-0.1-0.5-0.6-0.6-1.1
		c0-0.2-0.1-0.3-0.1-0.4c0-0.5,0.1-0.7,0.2-1C25.9,1.1,26,1,26,0.8C26,0.7,26.1,0.6,26,0.5c0.1-0.1,0.1-0.3,0.1-0.3l0,0v0
		c0,0,0,0,0,0H26c0,0,0,0,0,0C26,0.2,26,0.4,26,0.5z"/>
	<path class="st2" d="M22.7,0.8c0.2,0.1,0.7,0.3,1,0.3c0,0,0.1,0,0.1,0l0,0c0.2,0,0.4-0.1,0.5-0.2c0.1-0.2,0.1-0.4,0.1-0.6
		c0,0,0-0.1,0-0.1c0,0,0,0,0-0.1c0,0,0,0,0,0h0c0,0,0,0,0,0c0,0,0,0,0,0.1c0,0,0,0,0,0.1c0.1,0.2,0,0.4-0.1,0.5
		C24.2,1,24,1.1,23.8,1.1l0,0c0,0-0.1,0-0.1,0C23.5,1,23,0.8,22.7,0.8c-0.3-0.1-0.6-0.3-0.8-0.6h0C22.2,0.4,22.5,0.7,22.7,0.8z"/>
	<path class="st2" d="M26.9,1.3c0.1,0.1,0.3,0.2,0.5,0.2v0C27.2,1.4,27,1.3,26.9,1.3c-0.3-0.3-0.4-0.7-0.4-1.1h0
		C26.5,0.5,26.6,1,26.9,1.3z"/>
	<path class="st2" d="M27.2,0.3c0,0.1,0.1,0.2,0.3,0.2v0C27.3,0.5,27.2,0.4,27.2,0.3c0,0,0-0.1,0-0.1h0C27.2,0.2,27.2,0.2,27.2,0.3z
		"/>
	<path class="st2" d="M20.2,2c0,0.1-0.1,0.3-0.1,0.4c-0.1,0.3-0.2,0.6-0.3,0.8c-0.3,0.6-0.6,0.9-0.9,1.1c-0.4,0.2-0.6,0.6-0.5,1
		c0.1,0.4,0.5,0.7,0.8,0.9c0.4,0.2,0.8,0.3,1.1,0.4c0.1,0,0.2,0,0.2,0.1c0.1,0,0.2,0,0.3,0.1c0.1,0,0.2,0.1,0.3,0.1
		C21.3,6.9,21.5,7,21.7,7h0c0.1,0,0.2,0,0.3-0.1c0.1-0.1,0.1-0.3,0.1-0.5c0-0.1,0-0.2,0-0.3c-0.1-0.4-0.1-0.9,0-1.3
		c0.1-0.2,0.3-0.4,0.4-0.6c0.2-0.2,0.3-0.4,0.4-0.6C23,3.4,23.1,3,23,2.6c-0.1-0.5-0.4-0.7-0.8-0.9c-0.1-0.1-0.3-0.2-0.4-0.3
		c0-0.1-0.1-0.1-0.2-0.2c-0.2-0.3-0.4-0.6-0.7-0.6c-0.1,0-0.1,0-0.2,0.1c-0.3,0.2-0.4,0.7-0.5,1.1C20.2,1.8,20.2,1.9,20.2,2z
		 M20.8,0.7c0.1,0,0.1-0.1,0.2-0.1c0.2,0,0.5,0.3,0.6,0.6c0.1,0.1,0.1,0.2,0.2,0.3l0,0c0.1,0.1,0.3,0.2,0.5,0.3
		C22.6,2,22.9,2.2,23,2.6c0.1,0.3,0,0.7-0.1,0.9c-0.1,0.2-0.3,0.4-0.4,0.6c-0.2,0.2-0.3,0.4-0.4,0.6c-0.2,0.4-0.1,0.9,0,1.3
		c0,0.1,0,0.2,0,0.3c0,0.2,0,0.4-0.1,0.5c-0.1,0.1-0.1,0.1-0.3,0.1h0c-0.2,0-0.3,0-0.6-0.1c-0.1,0-0.2-0.1-0.3-0.1
		c-0.1,0-0.2,0-0.3-0.1c-0.1,0-0.2,0-0.2-0.1c-0.4-0.1-0.8-0.2-1.1-0.4c-0.3-0.2-0.7-0.5-0.8-0.8c-0.1-0.4,0.1-0.8,0.5-1
		c0.4-0.2,0.7-0.6,1-1.1C19.9,3,20,2.8,20.1,2.5c0-0.1,0.1-0.3,0.1-0.4c0-0.1,0.1-0.2,0.1-0.2C20.4,1.4,20.5,0.9,20.8,0.7z"/>
	<path class="st2" d="M21,2.8C21,2.8,21.1,2.8,21,2.8C21.2,3,21.4,3,21.5,3.2c0,0,0,0.1,0,0.1c0,0.1,0.1,0.3,0.2,0.3c0,0,0,0,0.1,0
		l0,0v0l0,0l0,0c0.2,0,0.4-0.2,0.5-0.5c0.1-0.2,0-0.4-0.1-0.5C22,2.7,22,2.6,21.9,2.6c-0.1,0-0.2-0.1-0.3-0.2
		c-0.1-0.1-0.1-0.2-0.2-0.4c0,0,0,0,0-0.1c0,0,0-0.1-0.1-0.2c0-0.2-0.1-0.4-0.2-0.4c0,0-0.1,0-0.1,0c-0.1,0-0.2,0.1-0.3,0.3
		c-0.1,0.3-0.2,0.7,0,1C20.8,2.7,20.9,2.8,21,2.8z M20.8,1.6c0-0.1,0.1-0.3,0.2-0.3c0,0,0,0,0.1,0c0.1,0.1,0.1,0.3,0.2,0.4
		c0,0.1,0,0.1,0.1,0.2c0,0,0,0,0,0.1c0.1,0.1,0.1,0.3,0.2,0.4c0.1,0.1,0.2,0.2,0.3,0.2c0.1,0,0.2,0.1,0.2,0.1
		c0.2,0.2,0.2,0.4,0.1,0.5c-0.1,0.2-0.3,0.4-0.5,0.4l0,0c0,0,0,0,0,0c-0.1,0-0.1-0.2-0.2-0.3c0,0,0-0.1,0-0.1
		c-0.1-0.2-0.2-0.3-0.4-0.4c0,0,0,0-0.1,0c-0.1-0.1-0.2-0.1-0.2-0.2C20.6,2.3,20.7,1.9,20.8,1.6z"/>
	<path class="st2" d="M24.2,4L24.2,4c0,0,0.1,0,0.1,0l0,0c0.1,0,0.2-0.1,0.3-0.2c0.1-0.2,0.1-0.3,0-0.5l0,0c-0.1,0-0.2-0.1-0.2,0
		l0,0C24.1,3.5,24.1,3.8,24.2,4L24.2,4z M24.3,3.4c0.1,0,0.1,0,0.2,0c0.1,0.1,0.1,0.3,0,0.4C24.5,3.9,24.4,4,24.3,4l0,0
		c0,0-0.1,0-0.1,0C24.1,3.7,24.2,3.5,24.3,3.4z"/>
	<path class="st2" d="M19.8,5.2c0.1,0.3,0.4,0.6,0.6,0.7c0,0,0.1,0,0.1,0.1c0.1,0.1,0.3,0.2,0.5,0.2c0.1,0,0.1,0,0.1,0
		c0.1-0.1,0.2-0.3,0.2-0.5c0,0,0-0.1,0-0.1c0,0,0-0.1,0-0.1c0.1-0.4,0.2-0.9,0-1.2c0-0.1-0.1-0.1-0.2-0.2c-0.1,0-0.2,0-0.3,0
		c-0.2,0-0.5,0.1-0.6,0.2C19.9,4.4,19.7,4.8,19.8,5.2z M20.8,4.1c0.1,0,0.2,0,0.3,0c0.1,0,0.2,0.1,0.2,0.2c0.2,0.4,0.1,0.8,0,1.2
		c0,0,0,0.1,0,0.1c0,0,0,0.1,0,0.1c0,0.2-0.1,0.3-0.2,0.4c0,0-0.1,0-0.1,0c-0.2,0-0.3-0.1-0.4-0.2c0,0-0.1,0-0.1-0.1
		c-0.3-0.2-0.6-0.4-0.6-0.7c-0.1-0.4,0.1-0.8,0.4-1C20.3,4.1,20.6,4.1,20.8,4.1z"/>
	<path class="st2" d="M26.9,6.1c-0.2,0-0.3,0-0.5,0.1c-0.2,0-0.3,0.1-0.5,0.1c-0.3,0-0.5-0.1-0.7-0.2c-0.2-0.1-0.5-0.2-0.8-0.2
		c-0.2,0-0.4,0.1-0.6,0.2l0,0l0,0c0,0.1,0,0.2,0,0.3l0,0l0,0c0,0,0,0,0,0.1c0,0,0,0,0,0l0,0c0.3,0.4,0.8,0.4,1.2,0.4
		c0.3,0,0.6,0,0.8,0.1c0.3,0.1,0.6,0.2,0.9,0.2l0,0c0.1,0,0.2,0,0.3,0c0,0,0.1,0,0.1,0c0.1,0,0.2,0,0.3,0v0c-0.1,0-0.2,0-0.3,0
		c0,0-0.1,0-0.1,0c-0.1,0-0.2,0-0.3,0l0,0c-0.3,0-0.6-0.1-0.9-0.2c-0.2-0.1-0.5-0.1-0.8-0.1c-0.4,0-0.9,0-1.2-0.4c0,0,0,0,0,0
		c0,0,0-0.1,0-0.1l0,0c0-0.1,0-0.2,0-0.2c0.2-0.1,0.4-0.2,0.6-0.2c0.3,0,0.6,0.1,0.8,0.2c0.2,0.1,0.4,0.2,0.7,0.2
		c0.2,0,0.4,0,0.5-0.1C26.6,6.2,26.8,6.1,26.9,6.1c0.2,0,0.3,0,0.5,0.1v0C27.3,6.1,27.1,6.1,26.9,6.1z"/>
	<path class="st1" d="M26.1,9c-0.1,0-0.1,0-0.2,0c-0.4,0-0.7,0.3-1.1,0.5l0,0c-0.1,0.1-0.2,0.1-0.2,0.2c-0.2,0.1-0.3,0.3-0.5,0.5
		c-0.2,0.3-0.2,0.7-0.2,1.1c0,0.2,0,0.3,0,0.4l0,0l0,0c0,0.2,0.1,0.4,0.2,0.5c0.1,0.1,0.3,0.2,0.4,0.3c0.1,0.1,0.3,0.2,0.4,0.3
		c0,0.1,0.1,0.1,0.1,0.2c0.1,0.1,0.2,0.3,0.3,0.4c0.2,0.2,0.5,0.3,0.9,0.3l0,0c0.4,0,0.7-0.1,0.8-0.4c0.1-0.2,0.1-0.4,0.2-0.6
		c0-0.1,0-0.2,0-0.3c0-0.2,0.2-0.5,0.3-0.7v0c-0.1,0.2-0.3,0.5-0.3,0.7c0,0.1,0,0.2,0,0.3c0,0.2,0,0.4-0.2,0.6
		c-0.2,0.2-0.5,0.4-0.8,0.4l0,0c-0.3,0-0.6-0.1-0.8-0.3c-0.1-0.1-0.2-0.2-0.3-0.4c0-0.1-0.1-0.1-0.1-0.2c-0.1-0.1-0.2-0.2-0.4-0.3
		c-0.1-0.1-0.3-0.2-0.4-0.3c-0.1-0.1-0.1-0.3-0.2-0.5c0-0.1,0-0.3,0-0.4c0-0.4,0-0.8,0.2-1.1c0.1-0.2,0.3-0.3,0.5-0.5
		c0.1-0.1,0.2-0.1,0.2-0.2l0,0C25.2,9.3,25.5,9,25.9,9C25.9,9,26,9,26.1,9c0.1,0,0.1,0,0.2,0c0.4,0,0.9,0.1,1.2,0.3v0
		c-0.3-0.2-0.8-0.2-1.2-0.3C26.2,9,26.1,9,26.1,9z"/>
	<path class="st2" d="M21,11c-0.4,0-0.6,0.4-0.7,0.7c0,0.1-0.1,0.2-0.2,0.3c-0.1,0.2-0.3,0.3-0.4,0.4c-0.1,0-0.1,0-0.2,0
		c-0.1,0-0.2,0-0.2,0c0,0-0.1,0-0.1,0.1c-0.1,0-0.1,0.1-0.2,0.1c-0.1,0-0.1,0-0.2,0c0,0,0,0,0,0c0,0,0,0,0,0c-0.1,0-0.1,0-0.2,0
		c-0.3,0.1-0.5,0.1-0.7,0.3c-0.3,0.2-0.5,0.6-0.6,1.2c0,0.1,0,0.2,0,0.3c-0.1,0.4-0.2,0.8,0,1.2c0.1,0.2,0.3,0.3,0.6,0.3
		c0.1,0,0.1,0,0.2,0c0.3-0.1,0.5-0.2,0.8-0.4c0.1-0.1,0.3-0.2,0.5-0.3c0.3-0.2,0.7-0.3,1.1-0.4c0.1,0,0.3-0.1,0.4-0.1
		c0.1,0,0.2-0.1,0.3-0.1c0.1,0,0.1,0,0.2-0.1c0.2-0.1,0.4-0.2,0.6-0.3c0.6-0.4,0.7-1.5,0.4-2.2C21.9,11.6,21.4,11,21,11z M22.1,13.1
		c-0.1,0.4-0.3,0.8-0.5,1c-0.2,0.1-0.4,0.2-0.6,0.3c-0.1,0-0.1,0-0.2,0.1c-0.1,0-0.2,0.1-0.3,0.1c-0.1,0-0.3,0.1-0.4,0.1
		c-0.4,0.1-0.7,0.3-1.1,0.4c-0.2,0.1-0.3,0.2-0.5,0.3c-0.2,0.2-0.5,0.3-0.8,0.4c-0.1,0-0.1,0-0.2,0c-0.2,0-0.4-0.1-0.5-0.3
		c-0.2-0.3-0.1-0.8,0-1.2c0-0.1,0-0.2,0-0.3c0.1-0.6,0.3-0.9,0.6-1.2c0.2-0.1,0.4-0.2,0.7-0.3c0.1,0,0.1,0,0.2,0c0,0,0,0,0,0
		c0,0,0,0,0,0c0.1,0,0.1,0,0.2,0c0.1,0,0.2-0.1,0.2-0.1c0,0,0.1,0,0.1-0.1c0.1,0,0.1,0,0.2,0c0.1,0,0.1,0,0.2,0
		c0.2-0.1,0.3-0.2,0.4-0.4c0.1-0.1,0.1-0.2,0.2-0.3c0.1-0.3,0.3-0.7,0.7-0.7c0.4,0,0.8,0.6,1,1C22.2,12.3,22.2,12.7,22.1,13.1z"/>
	<path class="st2" d="M1.3,14c0.2,0,0.5-0.1,0.7-0.1c0.3,0,0.7,0,0.9-0.1c0.3-0.1,0.6-0.3,0.7-0.6c0.1-0.2,0.1-0.4,0.1-0.7
		c-0.1-0.5-0.7-0.4-1-0.4c-0.4,0.1-0.9,0.1-1.3,0c-0.4-0.1-0.5-0.4-0.3-0.9c0-0.1,0.1-0.3,0.1-0.4c0.1-0.3,0.2-0.6,0.2-1
		c0-0.1-0.1-0.2-0.1-0.2c-0.2-0.5-0.6-0.8-1.1-1v0.1C0.6,9,1,9.3,1.2,9.7c0,0.1,0.1,0.1,0.1,0.2c0.1,0.3,0,0.6-0.2,0.9
		C1.1,11,1,11.1,1,11.3c-0.1,0.2-0.2,0.9,0.4,1c0.4,0.1,0.9,0,1.3,0c0.4-0.1,0.8-0.1,0.9,0.3c0.1,0.2,0,0.4-0.1,0.6
		c-0.1,0.2-0.4,0.4-0.7,0.5c-0.2,0.1-0.5,0.1-0.9,0.1C1.8,13.9,1.5,13.9,1.3,14c-0.3,0-0.5,0-0.8,0.1c-0.1,0-0.2,0.1-0.3,0.1v0.1
		c0.1,0,0.2-0.1,0.4-0.1C0.8,14.1,1,14,1.3,14z"/>
	<path class="st2" d="M1.3,16.8c0.6,0.3,1,0.6,1.3,1c0.3,0.3,0.6,0.6,1,0.7c0.2,0,0.5,0.1,0.7,0.1c0.4,0,0.8-0.1,1.1-0.2
		c0.2-0.1,0.3-0.2,0.5-0.4c0.1-0.1,0.1-0.2,0.2-0.2c0.1-0.2,0.3-0.4,0.4-0.5c0,0,0.1-0.1,0.1-0.1c0.2-0.2,0.5-0.4,0.7-0.5
		c0.1-0.1,0.3-0.1,0.4-0.1c0.2,0,0.5-0.1,0.6-0.3c0.2-0.2,0.2-0.6,0.2-1c0-0.1,0-0.1,0-0.2c0.1-0.6-0.2-0.9-0.4-1.2
		c-0.1-0.2-0.3-0.3-0.3-0.5l0,0c0-0.1-0.1-0.2-0.1-0.3c-0.1-0.2-0.2-0.3-0.4-0.3c-0.2,0-0.5,0.2-0.6,0.3c-0.1,0.1-0.2,0.1-0.3,0.2
		c0,0-0.1,0.1-0.1,0.1c-0.3,0.3-0.6,0.6-0.8,1c-0.1,0.2-0.2,0.4-0.4,0.6C5,15,4.7,15.2,4.4,15.2c-0.2,0-0.4,0-0.6,0
		c-0.1,0-0.3,0-0.4,0c-0.1,0-0.2,0-0.2,0c-0.1,0-0.2,0-0.4,0c-0.2,0-0.4,0-0.6-0.1c-0.1,0-0.2,0-0.3-0.1c-0.1,0-0.1,0-0.2,0
		c-0.2,0-0.3,0-0.5,0.1c-0.1,0-0.2,0-0.3,0.1c-0.3,0.1-0.5,0.1-0.8,0.3v0c0.2-0.1,0.5-0.2,0.8-0.3c0.1,0,0.2,0,0.3-0.1
		c0.2-0.1,0.4-0.1,0.5-0.1c0.1,0,0.1,0,0.2,0c0.1,0,0.2,0,0.3,0.1c0.2,0,0.4,0.1,0.6,0.1c0.1,0,0.2,0,0.4,0c0.1,0,0.2,0,0.2,0
		c0.1,0,0.3,0,0.4,0c0.2,0,0.4,0,0.6,0c0.3,0,0.5-0.2,0.7-0.3c0.1-0.2,0.3-0.4,0.4-0.6c0.2-0.3,0.4-0.7,0.8-1c0,0,0.1-0.1,0.1-0.1
		c0.1-0.1,0.2-0.1,0.3-0.2C6.8,13,7,12.8,7.2,12.8c0.1,0,0.3,0.1,0.3,0.3c0,0.1,0.1,0.2,0.1,0.2l0,0c0.1,0.2,0.2,0.4,0.3,0.5
		c0.2,0.3,0.4,0.6,0.4,1.2c0,0.1,0,0.1,0,0.2c0,0.3-0.1,0.7-0.2,1c-0.1,0.2-0.4,0.3-0.6,0.3c-0.1,0-0.3,0.1-0.4,0.1
		c-0.2,0.1-0.5,0.3-0.7,0.5c0,0-0.1,0.1-0.1,0.1c-0.2,0.1-0.3,0.3-0.4,0.5c-0.1,0.1-0.1,0.2-0.2,0.2c-0.2,0.2-0.3,0.3-0.4,0.4
		c-0.3,0.1-0.6,0.2-1,0.2c-0.2,0-0.4,0-0.7-0.1c-0.4-0.1-0.7-0.4-1-0.7C2.3,17.4,1.9,17.1,1.3,16.8c-0.2-0.1-0.4-0.2-0.6-0.2
		c-0.2-0.1-0.4-0.1-0.5-0.2v0c0.2,0.1,0.4,0.1,0.5,0.2C0.9,16.6,1.1,16.7,1.3,16.8z"/>
	<path class="st2" d="M10.5,19.9c0.1,0,0.2,0,0.4,0c0.2,0,0.3,0,0.5,0c0.4-0.1,0.8-0.3,1.2-0.6c0.1-0.1,0.2-0.1,0.3-0.2
		c0.4-0.3,0.9-0.6,0.9-1.1c0,0,0,0,0-0.1c0-0.3,0-0.6,0-0.9c0-0.4-0.1-0.9,0.1-1.3c0-0.1,0.1-0.2,0.2-0.3c0.1-0.1,0.1-0.2,0.2-0.3
		c0.1-0.2,0.1-0.4,0.2-0.7l0,0c0-0.1,0.1-0.3,0.1-0.4c0.1-0.3,0.3-0.4,0.6-0.5c0,0,0,0,0.1,0c0.4-0.2,0.8-0.4,0.9-1
		c0.1-0.4,0-0.9-0.1-1.2c-0.1-0.6-0.5-1-1.1-1.1c-0.1,0-0.3,0-0.4,0c-0.4,0-0.7,0.1-1,0.4c-0.2,0.2-0.3,0.5-0.2,0.9
		c0,0.1,0,0.1,0,0.2c0,0,0,0.1,0,0.1c0,0.4,0,0.8-0.2,1c-0.1,0.1-0.3,0.2-0.5,0.2c-0.1,0-0.2,0-0.2,0c-0.1,0-0.1,0-0.2-0.1
		c-0.1,0-0.3-0.1-0.5-0.1c-0.1,0-0.2,0-0.3,0c-0.3,0.1-0.8,0.5-1.2,0.8c-0.3,0.2-0.4,0.4-0.5,0.7c-0.1,0.2-0.1,0.3-0.2,0.5
		c-0.2,0.7-0.4,1.4-0.8,2.1c0,0.1-0.1,0.1-0.1,0.2c-0.1,0.1-0.2,0.3-0.2,0.4c0,0.1,0,0.2,0,0.3c0,0.1,0,0.2,0,0.2
		c0,0.2-0.1,0.4,0,0.6C8.8,19.4,9.9,19.8,10.5,19.9z M8.7,17.9c0-0.1,0-0.2,0-0.3c0-0.1,0-0.2,0-0.3c0-0.1,0.1-0.3,0.2-0.4
		c0-0.1,0.1-0.1,0.1-0.2c0.4-0.6,0.6-1.4,0.8-2.1c0.1-0.2,0.1-0.3,0.2-0.5c0.1-0.2,0.2-0.5,0.5-0.7c0.4-0.3,0.8-0.7,1.1-0.8
		c0.1,0,0.2,0,0.2,0c0.2,0,0.3,0,0.4,0.1c0.1,0,0.1,0,0.2,0.1c0.1,0,0.2,0,0.2,0c0.2,0,0.4-0.1,0.5-0.2c0.2-0.2,0.3-0.6,0.2-1
		c0-0.1,0-0.1,0-0.1c0,0,0-0.1,0-0.2c0-0.3,0-0.6,0.2-0.8c0.2-0.2,0.5-0.4,0.9-0.4c0.1,0,0.2,0,0.4,0c0.5,0.1,0.9,0.5,1.1,1.1
		c0.1,0.3,0.1,0.7,0.1,1.2c-0.1,0.5-0.3,0.8-0.9,1c0,0,0,0-0.1,0c-0.2,0.1-0.5,0.2-0.6,0.5c0,0.1-0.1,0.3-0.1,0.4l0,0
		c0,0.2-0.1,0.5-0.2,0.7c0,0.1-0.1,0.2-0.2,0.2c-0.1,0.1-0.1,0.2-0.2,0.3c-0.2,0.4-0.1,0.9-0.1,1.3c0,0.3,0.1,0.6,0,0.9
		c0,0,0,0,0,0.1c-0.1,0.5-0.5,0.8-0.9,1.1c-0.1,0.1-0.2,0.1-0.3,0.2c-0.4,0.3-0.8,0.5-1.2,0.6c-0.1,0-0.3,0-0.4,0
		c-0.1,0-0.2,0-0.4,0c-0.6-0.1-1.7-0.4-1.9-1.3C8.6,18.3,8.6,18.1,8.7,17.9z"/>
	<path class="st2" d="M10.7,19.3c0,0,0.1,0,0.1,0c0.6-0.1,1-0.4,1.4-0.7c0.1-0.1,0.2-0.2,0.3-0.3c0.2-0.1,0.3-0.3,0.4-0.5
		c0.2-0.4,0-0.9-0.4-1.3c-0.2-0.2-0.5-0.3-0.7-0.5c-0.1,0-0.1-0.1-0.2-0.1c-0.1,0-0.1,0-0.2-0.1c-0.1,0-0.1-0.1-0.2-0.1
		c0,0,0-0.1-0.1-0.1c-0.1-0.1-0.2-0.1-0.4-0.1c-0.1,0-0.3,0-0.4,0.1c-0.1,0.1-0.2,0.2-0.2,0.3c0,0.1-0.1,0.2-0.1,0.3
		c-0.1,0.1-0.2,0.2-0.3,0.3c-0.1,0.1-0.2,0.2-0.3,0.3c-0.4,0.4-0.5,1-0.3,1.5C9.4,18.9,10.1,19.3,10.7,19.3z M9.4,16.9
		c0.1-0.1,0.2-0.2,0.3-0.3c0.1-0.1,0.2-0.2,0.3-0.3c0.1-0.1,0.1-0.2,0.1-0.3c0.1-0.1,0.1-0.3,0.2-0.3c0.1-0.1,0.2-0.1,0.4-0.1
		c0.2,0,0.3,0,0.4,0.1c0,0,0.1,0.1,0.1,0.1c0,0.1,0.1,0.1,0.2,0.1c0.1,0,0.1,0,0.2,0.1c0.1,0,0.1,0,0.2,0.1c0.2,0.1,0.5,0.3,0.7,0.5
		c0.4,0.4,0.6,0.8,0.4,1.3c-0.1,0.2-0.2,0.3-0.4,0.5c-0.1,0.1-0.2,0.2-0.3,0.3c-0.4,0.3-0.8,0.7-1.4,0.7c0,0-0.1,0-0.1,0
		c-0.6,0-1.3-0.4-1.5-1C9,17.8,9.1,17.3,9.4,16.9z"/>
	<path class="st2" d="M10.3,18.6c0.1,0,0.1,0,0.2,0c0.4,0,0.8-0.2,0.9-0.6c0,0,0-0.1,0-0.1c0-0.3-0.3-0.4-0.7-0.4
		c-0.2,0-0.5,0.1-0.6,0.2c-0.2,0.1-0.3,0.3-0.3,0.6C9.9,18.3,10.1,18.5,10.3,18.6z M10.1,17.5c0.1-0.1,0.4-0.2,0.6-0.2
		c0.1,0,0.6,0,0.6,0.4c0,0,0,0.1,0,0.1c-0.1,0.4-0.5,0.6-0.8,0.6c-0.1,0-0.1,0-0.2,0c-0.3-0.1-0.4-0.2-0.5-0.5
		C9.8,17.9,9.9,17.7,10.1,17.5z"/>
	<path class="st2" d="M3.6,27c-0.2-0.1-0.4-0.1-0.6-0.1c0,0-0.1,0-0.1,0c-0.1,0-0.2,0-0.3,0c-0.3,0.1-0.4,0.4-0.4,0.8h0.1
		c0-0.3,0-0.6,0.3-0.7c0.1,0,0.2,0,0.3,0c0,0,0.1,0,0.1,0C3.1,27,3.3,27,3.6,27c0.3,0.2,0.7,0.3,1,0.5c0.1,0.1,0.3,0.1,0.4,0.2h0.2
		c-0.2-0.1-0.4-0.2-0.6-0.2C4.3,27.2,3.9,27.1,3.6,27z"/>
	<path class="st1" d="M1.6,27.1c0-0.1,0-0.2,0-0.3c0,0,0-0.1,0-0.1c0-0.3,0-0.6,0.1-0.8c0.1-0.1,0.2-0.1,0.3-0.1
		c0.2,0,0.5,0.1,0.7,0.3c0.2,0.1,0.3,0.2,0.5,0.2c0.3,0.1,0.6,0.2,0.8,0.2c0,0,0.1,0,0.1,0c0.4,0,0.8-0.2,0.9-0.4C5,26,5,26,5,25.9
		l0,0c0-0.1-0.1-0.3-0.1-0.4c-0.1-0.2-0.2-0.3-0.2-0.5c-0.1-0.5,0.2-0.8,0.4-1c0.4-0.3,0.9-0.4,1.4-0.4l0.1,0c0.6,0,1.1-0.1,1.4-0.6
		c0.2-0.4,0.5-0.9,0.6-1.5c0-0.4-0.1-0.7-0.3-1c-0.1-0.1-0.1-0.2-0.2-0.4l0,0l0,0c-0.1-0.1-0.2-0.3-0.3-0.4
		c-0.2-0.3-0.4-0.6-0.7-0.7c0,0-0.1,0-0.1,0c-0.1,0-0.3,0-0.3,0.1c-0.1,0-0.2,0.1-0.3,0.2c-0.2,0.1-0.3,0.2-0.5,0.2
		c-0.1,0-0.3,0.1-0.4,0.1c-0.1,0-0.3,0-0.4,0.1c-0.3,0.1-0.6,0.2-0.8,0.2c-0.5,0.2-1,0.3-1.6,0.4c-0.6,0.1-1,0.2-1.3,0.6
		C1,21,0.9,21.2,0.9,21.3c-0.1,0.2-0.2,0.4-0.3,0.6C0.5,22,0.4,22,0.3,22.1c-0.1,0.1-0.1,0.1-0.2,0.2v0.1c0.1-0.1,0.1-0.2,0.2-0.2
		c0.1-0.1,0.1-0.1,0.2-0.2c0.2-0.2,0.3-0.4,0.3-0.6C1,21.2,1.1,21,1.2,20.9c0.3-0.4,0.7-0.4,1.3-0.5c0.6-0.1,1.1-0.2,1.6-0.4
		c0.3-0.1,0.5-0.2,0.8-0.2c0.1,0,0.3-0.1,0.4-0.1c0.2,0,0.3,0,0.4-0.1c0.2,0,0.3-0.1,0.5-0.2c0.1-0.1,0.2-0.1,0.3-0.2
		c0,0,0.2-0.1,0.3-0.1c0,0,0.1,0,0.1,0c0.3,0.1,0.5,0.4,0.6,0.6c0.1,0.2,0.2,0.3,0.3,0.4c0.1,0.1,0.1,0.3,0.2,0.4
		c0.2,0.3,0.3,0.5,0.3,0.9c0,0.5-0.3,1-0.6,1.4c-0.3,0.5-0.8,0.5-1.4,0.6l-0.1,0c-0.6,0-1.1,0.1-1.5,0.4c-0.2,0.2-0.5,0.5-0.4,1.1
		c0,0.2,0.1,0.4,0.2,0.5c0.1,0.1,0.1,0.3,0.1,0.4l0,0c0,0,0,0.1,0,0.2c-0.1,0.2-0.4,0.4-0.8,0.4c0,0-0.1,0-0.1,0
		c-0.3,0-0.6-0.1-0.8-0.2c-0.2-0.1-0.3-0.2-0.5-0.2c-0.3-0.1-0.5-0.3-0.7-0.3c-0.1,0-0.2,0-0.3,0.1c-0.2,0.2-0.1,0.5-0.1,0.8
		c0,0,0,0.1,0,0.1C1.6,26.9,1.6,27,1.6,27.1c-0.1,0.1-0.1,0.2,0,0.3c0,0.1,0,0.1,0,0.2h0.1c0-0.1,0-0.1,0-0.2
		C1.6,27.3,1.6,27.2,1.6,27.1z"/>
	<path class="st2" d="M18.7,21.9c0.1,0,0.2,0.1,0.2,0.1c0,0,0.1,0,0.1,0c0.1-0.1,0.3-0.2,0.4-0.5c0.4-0.9,0.5-1.7,0.2-2.1
		c-0.1-0.1-0.2-0.2-0.3-0.2c-0.4,0-0.8,0.5-0.9,0.7c-0.2,0.4-0.2,0.9-0.1,1.1C18.3,21.3,18.4,21.7,18.7,21.9z M18.5,20
		c0.1-0.2,0.5-0.7,0.9-0.7c0.1,0,0.2,0,0.3,0.1c0.3,0.4,0.2,1.1-0.2,2c-0.1,0.3-0.3,0.4-0.4,0.5c-0.1,0-0.2,0-0.3-0.1
		c-0.3-0.2-0.4-0.6-0.4-0.8C18.3,20.8,18.3,20.4,18.5,20z"/>
	<path class="st2" d="M16.5,19.3L16.5,19.3c-0.2,0-0.4,0.2-0.4,0.4c-0.1,0.1,0,0.2,0.1,0.2l0,0l0,0c0,0,0,0,0.1,0c0,0,0,0,0,0l0,0
		l0,0C16.4,19.8,16.5,19.6,16.5,19.3L16.5,19.3z M16.2,19.9C16.2,19.9,16.2,19.9,16.2,19.9C16.2,19.9,16.1,19.9,16.2,19.9
		c-0.1-0.1-0.2-0.2-0.1-0.2l0,0c0-0.2,0.2-0.4,0.4-0.4C16.5,19.6,16.4,19.8,16.2,19.9z"/>
	<path class="st2" d="M0.5,24.6L0.5,24.6c0,0,0.1,0,0.1,0c0.1,0,0.3-0.1,0.4-0.1c0.2-0.1,0.3-0.1,0.5-0.1c0.1,0,0.1,0,0.2,0
		c0.5,0,0.8,0.3,1,0.6c0.2,0.2,0.4,0.5,0.8,0.6l0,0h0c0.3,0,0.3-0.3,0.3-0.6c0-0.1,0-0.2,0-0.4c0.1-0.3,0.3-0.8,0.7-1.2l0,0
		c0.1-0.1,0.1-0.2,0.2-0.2C5,23,5.5,23,5.9,23c0.2,0,0.5,0,0.7,0c0.3,0,0.6-0.2,0.7-0.4c0.3-0.3,0.4-0.8,0.3-1.2
		c0-0.3-0.2-0.5-0.4-0.6c-0.4-0.2-1-0.5-1.3-0.5c-0.1,0-0.2,0-0.3,0c-0.1,0-0.2,0-0.3,0c-0.3,0-0.7,0.2-1.1,0.3
		c-0.4,0.1-0.8,0.3-1.2,0.3c-0.1,0-0.2,0-0.2,0c-0.3,0-0.7,0-0.9,0.2c-0.2,0.2-0.3,0.4-0.4,0.7c0,0.1-0.1,0.2-0.1,0.2
		c-0.1,0.1-0.2,0.3-0.3,0.4c-0.2,0.2-0.3,0.4-0.4,0.7c0,0.1-0.1,0.2-0.1,0.3c-0.1,0.2-0.1,0.4-0.2,0.6c0,0,0,0,0,0.1
		c0,0.1-0.1,0.1-0.1,0.2v0.2C0.2,24.6,0.3,24.6,0.5,24.6z M0.3,24.1C0.3,24,0.3,24,0.3,24.1c0.1-0.2,0.2-0.5,0.3-0.7
		c0-0.1,0.1-0.2,0.1-0.3c0.1-0.2,0.2-0.5,0.4-0.7c0.1-0.1,0.2-0.3,0.3-0.4c0-0.1,0.1-0.2,0.1-0.2c0.1-0.3,0.2-0.5,0.4-0.7
		c0.2-0.2,0.5-0.2,0.9-0.2c0.1,0,0.2,0,0.3,0c0.4,0,0.8-0.2,1.2-0.3c0.4-0.1,0.8-0.3,1.1-0.3c0.1,0,0.2,0,0.3,0c0.1,0,0.2,0,0.3,0
		c0.4,0,1,0.3,1.3,0.5c0.2,0.1,0.3,0.3,0.4,0.6c0.1,0.4-0.1,0.8-0.3,1.2c-0.2,0.2-0.4,0.3-0.7,0.4c-0.2,0-0.5,0-0.7,0
		c-0.5,0-0.9,0-1.3,0.3c-0.1,0.1-0.2,0.2-0.2,0.2l0,0c-0.3,0.4-0.6,0.9-0.7,1.2c0,0.1,0,0.2,0,0.4c0,0.3,0,0.5-0.3,0.5
		c-0.4-0.1-0.6-0.4-0.8-0.6c-0.3-0.3-0.5-0.6-1-0.6c-0.1,0-0.1,0-0.2,0c-0.2,0-0.3,0.1-0.5,0.1c-0.1,0-0.3,0.1-0.4,0.1
		c0,0-0.1,0-0.1,0l0,0c-0.1,0-0.2-0.1-0.3-0.2C0.1,24.3,0.2,24.2,0.3,24.1z"/>
	<path class="st1" d="M14.2,21.7c-0.1-0.3-0.3-0.7-0.4-0.9c-0.1-0.1-0.2-0.3-0.4-0.3c0,0-0.1,0-0.1,0c-0.2,0-0.4,0.1-0.6,0.1
		c-0.3,0.1-0.5,0.1-0.9,0.2c-0.4,0-1,0.1-1.5,0.1c-0.2,0-0.4,0.1-0.5,0.3c-0.1,0.2-0.2,0.4-0.1,0.6l0,0c0,0,0,0,0,0.1
		c0,0,0,0.1,0.1,0.1l0,0l0,0c0.2,0.1,0.4,0.2,0.7,0.2c0.3,0.1,0.6,0.1,0.9,0.3c0.2,0.1,0.3,0.2,0.4,0.3c0.1,0.1,0.2,0.2,0.3,0.2
		c0.3,0.2,0.8,0.3,1.2,0.4c0.1,0,0.1,0,0.2,0l0,0c0.2,0,0.4-0.1,0.5-0.2c0.2-0.3,0.3-1,0.3-1.3C14.3,21.9,14.2,21.7,14.2,21.7z
		 M14,23.2c-0.1,0.1-0.2,0.2-0.4,0.2c0,0-0.1,0-0.2,0c-0.4,0-0.8-0.2-1.2-0.4c-0.1-0.1-0.2-0.2-0.3-0.2c-0.1-0.1-0.3-0.2-0.4-0.3
		c-0.3-0.2-0.6-0.2-0.9-0.3c-0.3-0.1-0.5-0.1-0.7-0.2c0,0,0-0.1-0.1-0.1c0,0,0,0,0-0.1c0-0.2,0-0.4,0.1-0.6c0.1-0.2,0.3-0.3,0.5-0.3
		c0.5,0,1.1-0.1,1.5-0.1c0.3,0,0.6-0.1,0.9-0.2c0.2-0.1,0.4-0.1,0.6-0.1c0,0,0.1,0,0.1,0c0.2,0,0.3,0.1,0.4,0.2
		c0.1,0.2,0.3,0.6,0.4,0.9c0,0.1,0.1,0.2,0.1,0.3C14.3,22.3,14.2,22.9,14,23.2z"/>
	<path class="st2" d="M5.1,22.1L5.1,22.1c0.2,0,0.5,0,0.6-0.1C5.9,21.9,6,21.7,6,21.6c0-0.4-0.3-0.5-0.7-0.5c-0.3,0-0.6,0.1-0.8,0.3
		c-0.1,0.1-0.3,0.2-0.2,0.4C4.4,22,4.8,22.1,5.1,22.1z M4.6,21.3c0.2-0.2,0.5-0.2,0.8-0.2c0.4,0,0.6,0.2,0.6,0.5
		c0,0.2-0.2,0.3-0.3,0.4c-0.2,0.1-0.4,0.1-0.6,0.1l0,0c-0.4,0-0.7-0.1-0.8-0.3C4.3,21.6,4.4,21.4,4.6,21.3z"/>
	<path class="st2" d="M13.1,21.6c-0.1-0.1-0.4-0.2-0.6-0.2c-0.2,0-0.5,0.1-0.7,0.2l0,0l0,0c0,0,0,0,0,0l0,0c0,0,0,0.1,0,0.1
		c0,0,0,0,0,0.1v0l0,0c0.2,0.2,0.5,0.7,1,0.7l0,0c0.1,0,0.1,0,0.2,0c0.2-0.1,0.3-0.2,0.3-0.3C13.3,22,13.3,21.8,13.1,21.6z
		 M13.3,22.2c0,0.1-0.1,0.2-0.3,0.3c-0.1,0-0.1,0-0.2,0l0,0c-0.4,0-0.7-0.4-0.9-0.7c0,0,0,0,0-0.1c0,0,0-0.1,0-0.1c0,0,0,0,0-0.1
		c0.2-0.1,0.4-0.2,0.6-0.2c0.2,0,0.4,0.1,0.6,0.2C13.2,21.8,13.3,22,13.3,22.2z"/>
	<path class="st2" d="M10.8,23.4c-0.1,0-0.2,0-0.3-0.1c-0.2,0-0.3,0-0.5,0c-0.9,0-1.7,0.3-2,0.8c-0.1,0.2-0.2,0.4-0.3,0.5
		c-0.2,0.4-0.3,0.7-0.7,1c-0.1,0.1-0.2,0.1-0.3,0.2c-0.1,0-0.1,0.1-0.2,0.1c-0.1,0.1-0.3,0.2-0.3,0.4v0l0,0c0.1,0.2,0.3,0.5,0.5,0.6
		c0.3,0.2,0.8,0.3,1.2,0.4c0.1,0,0.2,0,0.2,0l0,0c0.5,0,0.8-0.2,1.1-0.5c0.1-0.1,0.2-0.1,0.3-0.2c0,0,0.1-0.1,0.1-0.1
		c0.5-0.4,1.1-0.8,1.6-1.4c0.1-0.1,0.2-0.3,0.2-0.4C11.7,24.1,11.2,23.5,10.8,23.4z M11.5,24.7c0,0.1-0.1,0.3-0.2,0.4
		c-0.5,0.6-1.1,1-1.6,1.4c0,0-0.1,0.1-0.1,0.1c-0.1,0.1-0.2,0.1-0.3,0.2c-0.3,0.3-0.6,0.5-1.1,0.5c-0.1,0-0.2,0-0.2,0
		c-0.4-0.1-0.9-0.2-1.2-0.4c-0.2-0.1-0.4-0.4-0.5-0.6c0-0.2,0.1-0.3,0.3-0.4c0.1,0,0.1-0.1,0.2-0.1c0.1-0.1,0.2-0.1,0.3-0.2
		c0.4-0.3,0.5-0.7,0.7-1c0.1-0.2,0.2-0.3,0.3-0.5c0.3-0.5,1-0.7,1.9-0.7c0.2,0,0.3,0,0.5,0c0.1,0,0.2,0,0.3,0.1
		C11.2,23.5,11.6,24.2,11.5,24.7z"/>
	<path class="st2" d="M9.9,23.9c-0.4,0-0.9,0.2-1.1,0.4c-0.2,0.2-0.3,0.6-0.5,0.9c-0.1,0.2-0.1,0.3-0.2,0.5c-0.1,0.1-0.1,0.3,0,0.4
		c0.1,0.1,0.2,0.2,0.3,0.2l0,0c0,0,0,0,0.1,0c0,0,0.1,0,0.2-0.1c0.2-0.1,0.4-0.2,0.6-0.3c0.1,0,0.2-0.1,0.2-0.1
		c0.2-0.1,0.4-0.3,0.6-0.4c0.2-0.2,0.4-0.5,0.5-0.8c0-0.2,0-0.4-0.1-0.5C10.4,24,10.2,23.9,9.9,23.9z M10.6,24.6
		c0,0.2-0.3,0.5-0.5,0.8c-0.1,0.1-0.3,0.3-0.6,0.4c-0.1,0-0.2,0.1-0.2,0.1c-0.2,0.1-0.4,0.2-0.6,0.3c-0.1,0-0.2,0.1-0.2,0.1
		c0,0,0,0-0.1,0l0,0c-0.1,0-0.2-0.1-0.3-0.2c-0.1-0.1-0.1-0.3,0-0.4c0.1-0.2,0.1-0.3,0.2-0.5c0.1-0.3,0.3-0.7,0.5-0.9
		c0.2-0.2,0.6-0.4,1-0.4c0.3,0,0.5,0.1,0.7,0.2C10.7,24.3,10.7,24.4,10.6,24.6z"/>
	<path class="st2" d="M6.8,24.9C6.9,24.8,7,24.6,7,24.5c0-0.2-0.2-0.4-0.5-0.4c-0.4,0-0.8,0.2-0.9,0.4c0,0.1,0,0.1,0,0.1
		c0,0,0,0.1,0,0.1v0l0,0c0.1,0.2,0.3,0.4,0.6,0.4l0,0C6.4,25.2,6.6,25.1,6.8,24.9z M6.1,25.1c-0.3,0-0.5-0.1-0.6-0.3
		c0,0,0-0.1,0-0.1c0,0,0-0.1,0-0.1c0.1-0.3,0.5-0.4,0.9-0.4c0.1,0,0.5,0,0.5,0.3c0,0.1-0.1,0.3-0.2,0.4C6.6,25,6.4,25.1,6.1,25.1z"
		/>
	<path class="st2" d="M18.5,25.7L18.5,25.7c0,0.1,0.1,0.1,0.2,0.1c0,0,0.1,0,0.1,0l0,0c0,0,0-0.1,0-0.1c0-0.1-0.1-0.2-0.1-0.2l0,0h0
		c0,0-0.1,0-0.1,0C18.5,25.5,18.5,25.6,18.5,25.7L18.5,25.7z M18.6,25.4C18.6,25.4,18.6,25.4,18.6,25.4c0.1,0,0.2,0.1,0.2,0.2
		c0,0,0,0.1,0,0.1c0,0-0.1,0-0.1,0c0,0-0.1,0-0.1-0.1C18.5,25.6,18.5,25.5,18.6,25.4z"/>
	<path class="st2" d="M13.2,26.5c0-0.2,0-0.4-0.1-0.5c-0.1-0.2-0.6-0.3-0.9-0.3c-0.2,0-0.4,0-0.6,0.1c-0.2,0.1-0.5,0.3-0.7,0.5
		c-0.1,0.1-0.3,0.2-0.4,0.3c-0.4,0.3-0.7,0.6-0.9,0.9h0c0.2-0.3,0.5-0.6,0.9-0.9c0.1-0.1,0.3-0.2,0.4-0.3c0.2-0.2,0.5-0.4,0.7-0.5
		c0.1,0,0.3-0.1,0.6-0.1c0.3,0,0.7,0.1,0.9,0.3C13.1,26.1,13.1,26.3,13.2,26.5c-0.1,0.3-0.2,0.7-0.3,1.1c0,0,0,0,0,0.1h0
		c0,0,0,0,0-0.1C13,27.2,13.1,26.8,13.2,26.5z"/>
	<path class="st2" d="M0.3,26.4c-0.1,0-0.1,0-0.2,0v0C0.2,26.4,0.3,26.4,0.3,26.4c0.2,0,0.4,0.1,0.5,0.3c0.1,0.2,0.2,0.6,0.2,0.9h0
		c0-0.4-0.1-0.8-0.2-1C0.7,26.5,0.5,26.4,0.3,26.4z"/>
	<path class="st2" d="M11.8,27.2C11.8,27.2,11.8,27.2,11.8,27.2C11.8,27.1,11.8,27.1,11.8,27.2L11.8,27.2c-0.1-0.1-0.1-0.1-0.1-0.1
		c-0.2,0-0.3,0.2-0.4,0.4l0,0l0,0c0,0,0,0,0,0c0,0,0,0,0,0l0,0l0,0c0,0,0.1,0,0.1,0l0,0c0.1,0,0.2,0,0.2-0.1
		C11.8,27.4,11.8,27.3,11.8,27.2L11.8,27.2L11.8,27.2z M11.7,27.4c-0.1,0.1-0.1,0.1-0.2,0.1l0,0c0,0-0.1,0-0.1,0c0,0,0,0,0,0
		c0,0,0,0,0,0c0-0.2,0.2-0.4,0.3-0.4c0,0,0,0,0.1,0c0,0,0,0,0,0c0,0,0,0,0,0C11.8,27.3,11.8,27.4,11.7,27.4z"/>
	<path class="st2" d="M0.3,27.3c0,0-0.1,0-0.1,0c0,0,0,0,0,0v0c0,0,0,0,0,0C0.2,27.3,0.3,27.3,0.3,27.3c0.1,0.1,0.1,0.2,0.1,0.3
		c0,0,0,0,0,0h0c0,0,0,0,0,0C0.4,27.5,0.4,27.4,0.3,27.3z"/>
	<path class="st2" d="M26.8,15c-0.5,0.2-0.8,0.6-0.9,1c0,0.2,0,0.5,0.4,0.8c0,0,0,0,0.1,0c0.2,0.1,0.4,0.2,0.5,0.5
		c0.1,0.3,0.1,0.5,0.1,0.8c0,0.1,0,0.1,0,0.2c0,0.3,0.2,0.6,0.5,0.8V19c-0.2-0.2-0.4-0.4-0.4-0.7c0-0.1,0-0.1,0-0.2
		c0-0.3,0.1-0.5-0.1-0.8c-0.1-0.2-0.3-0.4-0.5-0.5c0,0,0,0-0.1,0c-0.3-0.2-0.4-0.4-0.4-0.7C26,15.6,26.4,15.2,26.8,15
		c0.2,0,0.4,0,0.7-0.1c0,0,0,0,0,0v-0.1c0,0,0,0,0,0C27.2,14.9,27,14.9,26.8,15z"/>
	<path class="st2" d="M26.4,8.1c-0.4-0.1-0.7-0.1-1,0c-0.4,0.1-0.8,0.3-1.1,0.5c-0.2,0.1-0.4,0.3-0.6,0.4c-0.3,0.2-0.6,0.4-0.8,0.5
		c-0.4,0.3-0.5,0.7-0.5,1.2c0.1,0.6,0.2,1,0.3,1.5c0.1,0.3,0.2,0.7,0.2,1c0,0.1,0,0.2,0,0.3c0.1,0.4,0.2,0.9,0.1,1.3
		c-0.1,0.5-0.4,0.9-1,1.1l-0.2,0h0.1c0,0,0,0,0,0c0,0,0,0,0,0c0,0-0.2,0-0.1,0c0,0,0.2,0,0.2,0l0,0c0.6-0.2,0.9-0.6,1-1.2
		c0-0.4,0-0.9-0.1-1.3c0-0.1,0-0.2,0-0.3c-0.1-0.4-0.1-0.7-0.2-1.1c-0.1-0.5-0.2-0.9-0.3-1.5c0-0.5,0.1-0.8,0.4-1.2
		c0.2-0.2,0.5-0.3,0.8-0.5C24,9,24.2,8.9,24.4,8.7c0.3-0.2,0.6-0.4,1.1-0.5C25.7,8.1,26.1,8.2,26.4,8.1c0.1,0.1,0.2,0.1,0.3,0.1
		c0.2,0,0.5,0.1,0.7,0.1V8.3c-0.2,0-0.4-0.1-0.7-0.1C26.6,8.2,26.5,8.2,26.4,8.1z"/>
	<path class="st1" d="M25.2,26.9c-0.2-0.2-0.3-0.5-0.2-0.8c0.1-0.2,0.2-0.3,0.4-0.4c0.2-0.1,0.4-0.3,0.4-0.5c0.1-0.3,0-1.1,0-1.4
		c0-0.1-0.1-0.2-0.1-0.3c-0.1-0.2-0.2-0.4-0.1-0.6c0.1-0.3,0.4-0.5,0.8-0.7c0.1-0.1,0.3-0.2,0.4-0.2c0.3-0.2,0.7-0.5,0.7-1.1
		c-0.1-0.4-0.4-0.6-0.8-0.8c-0.2-0.1-0.4-0.3-0.6-0.4c-0.2-0.2-0.5-0.4-0.8-0.5c0,0-0.1,0-0.1,0c-0.1,0-0.1-0.1-0.2-0.1
		c0,0-0.1,0-0.1,0c-0.2-0.1-0.6-0.2-0.9-0.2c-0.1,0-0.2,0-0.3,0c-0.5,0.1-0.8,0.7-0.9,1.2c-0.2,0.9,0.2,1.4,0.5,1.9
		c0.1,0.2,0.2,0.4,0.3,0.6c0,0.1,0.1,0.3,0,0.5c-0.1,0.6-0.6,1-1,1.6c-0.1,0.1-0.2,0.3-0.3,0.4c-0.2,0.3-0.5,0.5-0.7,0.7l0,0
		c-0.1,0.1-0.3,0.2-0.4,0.4c0,0,0,0,0,0.1c-0.3,0.4-0.3,0.8-0.1,1c0.1,0.1,0.1,0.2,0.2,0.3c0.1,0,0.1,0.1,0.1,0.2h0.1c0,0,0,0,0,0
		c-0.1-0.1-0.1-0.1-0.2-0.2c-0.1-0.1-0.2-0.1-0.2-0.2c-0.2-0.3-0.1-0.6,0.1-1c0,0,0,0,0-0.1c0.1-0.1,0.2-0.3,0.4-0.4l0,0
		c0.2-0.2,0.4-0.4,0.7-0.7c0.1-0.1,0.2-0.3,0.3-0.4c0.5-0.5,0.9-1,1-1.6c0.1-0.2,0-0.4,0-0.5c-0.1-0.2-0.2-0.4-0.3-0.6
		c-0.3-0.5-0.6-1-0.4-1.8c0.1-0.5,0.4-1,0.9-1.1c0.1,0,0.2,0,0.3,0c0.3,0,0.6,0.1,0.9,0.2c0,0,0.1,0,0.1,0c0.1,0,0.1,0,0.2,0.1
		c0,0,0.1,0,0.1,0c0.3,0.1,0.5,0.3,0.8,0.5c0.2,0.2,0.4,0.3,0.6,0.4c0.4,0.2,0.7,0.4,0.7,0.7c0.1,0.5-0.3,0.8-0.6,1
		c-0.1,0.1-0.2,0.2-0.4,0.2c-0.3,0.2-0.7,0.4-0.8,0.7c-0.1,0.2,0,0.5,0.1,0.7c0,0.1,0.1,0.2,0.1,0.3c0.1,0.2,0.1,1,0,1.4
		c0,0.2-0.2,0.3-0.4,0.5c-0.2,0.1-0.4,0.2-0.4,0.5C24.8,26.4,25,26.7,25.2,26.9c0.1,0.2,0.2,0.4,0.2,0.6c0,0,0,0.1,0,0.1h0.1
		c0,0,0-0.1,0-0.1C25.5,27.3,25.3,27.1,25.2,26.9z"/>
	<path class="st2" d="M27.1,22.9c-0.1,0.2-0.2,0.4-0.3,0.6c0,0-0.1,0.1-0.1,0.1c-0.2,0.3-0.3,0.5-0.3,1.1c0,0.1,0.1,0.2,0.1,0.3
		c0.1,0.2,0.1,0.3,0.1,0.5c0,0.1-0.1,0.3-0.1,0.4c-0.1,0.1-0.1,0.2-0.2,0.3c-0.2,0.3-0.3,0.6-0.3,1.3h0.1c0-0.7,0.1-0.9,0.3-1.3
		c0.1-0.1,0.1-0.2,0.2-0.3c0-0.1,0.1-0.3,0.1-0.4c0-0.2,0-0.4-0.1-0.5c0-0.1-0.1-0.2-0.1-0.3c-0.1-0.5,0.1-0.8,0.3-1.1
		c0,0,0.1-0.1,0.1-0.1C27,23.4,27.1,23.2,27.1,22.9c0.1-0.1,0.2-0.3,0.2-0.4c0-0.1,0.1-0.1,0.1-0.1v-0.1c-0.1,0.1-0.1,0.1-0.1,0.2
		C27.2,22.6,27.2,22.8,27.1,22.9z"/>
	<path class="st2" d="M24.4,22.1L24.4,22.1c0.5,0,1.2-0.5,1.3-1c0-0.3-0.1-0.7-0.4-1c-0.4-0.4-0.9-0.7-1.3-0.7c-0.2,0-0.3,0-0.5,0.1
		c-0.4,0.3-0.5,0.9-0.4,1.2c0.1,0.7,0.6,1.2,1.1,1.3C24.3,22.1,24.4,22.1,24.4,22.1z M23.2,20.9c0-0.4,0-0.9,0.4-1.2
		c0.1-0.1,0.3-0.1,0.4-0.1c0.4,0,0.9,0.3,1.2,0.7c0.3,0.3,0.4,0.7,0.4,1c-0.1,0.5-0.8,1-1.3,1c0,0-0.1,0-0.1,0
		C23.8,22,23.3,21.5,23.2,20.9z"/>
	<path class="st2" d="M27.4,24.5L27.4,24.5C27.4,24.5,27.4,24.5,27.4,24.5l0-0.2C27.4,24.3,27.4,24.4,27.4,24.5z"/>
	<path class="st2" d="M24.4,21.2c0.1,0,0.2-0.1,0.3-0.2c0-0.1,0-0.2-0.1-0.3c0,0-0.1-0.1-0.2-0.1c-0.1,0-0.2,0-0.2,0.1
		c0,0.1-0.1,0.1-0.1,0.2l0,0C24.3,21.1,24.4,21.2,24.4,21.2L24.4,21.2z M24.2,21c0-0.1,0-0.1,0-0.2c0-0.1,0.1-0.1,0.2-0.1
		c0.1,0,0.1,0,0.2,0.1c0.1,0.1,0.1,0.2,0.1,0.2c0,0.1-0.1,0.2-0.2,0.2C24.3,21.1,24.3,21.1,24.2,21z"/>
	<path class="st2" d="M24.3,23.7c0,0-0.1,0-0.1,0c-0.3,0.1-0.4,0.5-0.4,0.9l0,0c0.1,0.1,0.2,0.2,0.4,0.2l0,0c0.2,0,0.4-0.1,0.5-0.2
		c0.1-0.1,0.1-0.2,0.1-0.3C24.8,24,24.6,23.7,24.3,23.7z M24.7,24.6c-0.1,0.1-0.3,0.2-0.5,0.2l0,0c-0.2,0-0.3-0.1-0.4-0.2
		c-0.1-0.3,0-0.7,0.4-0.8c0,0,0.1,0,0.1,0c0.3,0,0.5,0.3,0.5,0.6C24.8,24.4,24.8,24.5,24.7,24.6z"/>
	<path class="st2" d="M23.8,26.2c-0.2-0.3-0.4-0.4-0.7-0.5c0,0-0.1,0-0.1,0c-0.5,0-1,0.4-1.3,0.7c-0.1,0.1-0.2,0.3-0.1,0.5
		c0.1,0.3,0.2,0.5,0.3,0.7h0c-0.2-0.2-0.3-0.4-0.3-0.7c0-0.2,0-0.3,0.1-0.4c0.2-0.3,0.8-0.7,1.3-0.7c0,0,0.1,0,0.1,0
		C23.4,25.8,23.6,26,23.8,26.2c0.1,0.2,0.2,0.6,0.3,0.9c0.1,0.2,0.1,0.4,0.2,0.5h0c-0.1-0.2-0.1-0.3-0.2-0.5
		C24,26.8,23.9,26.5,23.8,26.2z"/>
	<path class="st2" d="M26.6,27.3c0,0.1,0,0.2,0,0.3h0C26.5,27.5,26.6,27.4,26.6,27.3c0.1-0.4,0.5-0.8,0.9-0.9v0
		C27,26.5,26.6,26.9,26.6,27.3z"/>
	<path class="st2" d="M27.2,27.4c0,0.1-0.1,0.1-0.1,0.2h0C27.2,27.5,27.2,27.5,27.2,27.4c0.1,0,0.1-0.1,0.2-0.1v0
		C27.4,27.3,27.3,27.3,27.2,27.4z"/>
	<path class="st2" d="M26.8,8.6c-0.4-0.1-0.8-0.2-1.2,0c-0.4,0.1-0.7,0.3-1,0.6c-0.1,0.1-0.2,0.2-0.4,0.3l0,0
		c-0.2,0.2-0.4,0.3-0.6,0.5l0,0c-0.3,0.3-0.3,0.7-0.3,1c0,0.1,0,0.1,0,0.2c0,0.4,0,0.9,0.1,1.1c0.1,0.3,0.2,0.5,0.4,0.8
		c0.2,0.3,0.5,0.7,0.4,1.2c0,0.1,0,0.1-0.1,0.2c0,0.1-0.1,0.2-0.1,0.3c0,0.1,0,0.2,0,0.2c0,0,0,0.1,0,0.1c0,0.2,0,0.5-0.2,0.7
		c-0.2,0.4-0.7,0.8-1.2,0.9c-0.2,0-0.3,0.1-0.5,0.1c-0.3,0.1-0.6,0.1-0.8,0.2c-0.1,0-0.1,0-0.2,0c-0.6,0-1,0.1-1.6,0.3
		c-0.1,0.1-0.3,0.1-0.4,0.2c-0.4,0.1-0.8,0.3-1,0.8c-0.1,0.3-0.3,0.5-0.4,0.8c-0.2,0.4-0.4,0.7-0.5,1.1c-0.1,0.3,0,0.6,0,1
		c0,0,0,0.1,0,0.1c0.1,0.4,0.1,0.8,0,1.1c-0.1,0.4-0.3,0.6-1,0.8c-0.6,0.1-0.8,0.2-1,0.9c0,0.1,0,0.2-0.1,0.4
		c-0.1,0.8-0.2,1.5-0.9,1.7c-0.2,0.1-0.5,0-0.7-0.1c-0.1-0.1-0.2-0.2-0.2-0.3c0-0.1,0-0.2,0-0.3c0-0.2,0-0.4-0.1-0.5
		c-0.1-0.3-0.4-0.5-0.8-0.7c-0.2-0.1-0.3-0.2-0.5-0.3c-0.1-0.1-0.2-0.2-0.3-0.3c-0.3-0.2-0.5-0.4-0.9-0.5c-0.2,0-0.5-0.1-0.7-0.1
		c-0.5,0-1,0-1.1-0.4c0-0.1,0-0.3,0-0.4c0,0,0,0,0-0.1c0-0.1,0-0.1,0-0.2c0.1-0.5,0.2-1.2,0.6-1.3c0.2,0,0.4,0,0.6,0
		c0.1,0,0.1,0,0.2,0c0.7,0.1,1.2-0.1,1.5-0.2c0.3-0.1,0.6-0.3,0.9-0.5c0.2-0.2,0.5-0.4,0.8-0.4c0.1,0,0.2-0.1,0.4-0.1
		c0.5-0.1,1-0.2,1.1-0.7c0.1-0.4-0.1-0.9-0.3-1.3c-0.1-0.2-0.2-0.4-0.2-0.6c-0.1-0.5,0.1-1,0.3-1.4c0-0.1,0.1-0.2,0.1-0.3
		c0.1-0.3,0.2-0.5,0.5-0.7c0.4-0.3,0.7-0.7,1-1.4c0,0,0-0.1,0.1-0.1c0.1-0.2,0.2-0.4,0.3-0.7c0.1-0.2,0.3-0.3,0.4-0.5
		c0.2-0.2,0.3-0.4,0.4-0.7c0-0.1,0-0.1,0-0.2c0-0.1,0-0.1,0-0.2c0.1-0.3,0.3-0.5,0.5-0.7c0.2-0.2,0.4-0.3,0.5-0.6
		c0.1-0.2,0.1-0.4,0-0.6c0-0.5-0.2-0.9-0.5-1.1c-0.2-0.1-0.4-0.1-0.6-0.1c-0.5,0.1-1.1,1-1.3,1.2c0,0-0.1,0.1-0.1,0.1
		c-0.2,0.3-0.4,0.5-0.7,0.7c-0.3,0.1-0.6,0.1-0.9,0.2c-0.2,0-0.4,0-0.6,0.1c-0.8,0.2-1.4,0.7-1.5,1.5c0,0.1,0,0.1,0,0.2
		c0,0.1,0,0.3-0.1,0.4c-0.1,0.2-0.3,0.2-0.5,0.3c-0.1,0-0.1,0-0.2,0.1c-0.2,0.1-0.5,0.2-0.7,0.4c-0.2,0.2-0.5,0.3-0.8,0.4
		c-0.1,0-0.3,0-0.4,0.1c-0.2,0-0.4,0-0.5,0.1c-0.5,0.1-0.4,0.6-0.3,1c0,0.1,0,0.2,0,0.2c0.1,0.3,0,0.7-0.1,1.2c0,0.1,0,0.2-0.1,0.3
		c0,0.2-0.1,0.5-0.2,0.7c-0.1,0.2-0.2,0.2-0.4,0.3c0,0-0.1,0-0.1,0.1c-0.5,0.2-0.9,0.6-1.3,1l-0.1,0.1c-0.1,0.1-0.2,0.3-0.4,0.4
		c-0.1,0.1-0.3,0.3-0.4,0.4c-0.2,0.2-0.6,0.4-1,0.5c-0.3,0.1-0.6,0.2-0.8,0.2c-0.4,0.1-0.9,0.2-1.3,0.4c-0.4,0.2-1.2,0.3-1.7,0.1
		c-0.3-0.1-0.6-0.3-1-0.7c0,0,0,0-0.1-0.1v0.1c0,0,0,0,0,0c0.4,0.4,0.8,0.6,1,0.7C1.7,20,2.6,19.9,3,19.7c0.4-0.2,0.9-0.3,1.3-0.4
		c0.3-0.1,0.6-0.2,0.9-0.3c0.4-0.1,0.7-0.3,1-0.5c0.2-0.1,0.3-0.3,0.4-0.4c0.1-0.1,0.2-0.3,0.4-0.4l0.1-0.1c0.4-0.4,0.8-0.7,1.3-0.9
		c0.1,0,0.1,0,0.1-0.1c0.2-0.1,0.3-0.1,0.4-0.3C8.9,16.1,9,15.9,9,15.6c0-0.1,0-0.2,0.1-0.3c0.1-0.5,0.1-0.8,0.1-1.2
		c0-0.1,0-0.1-0.1-0.2C9,13.5,8.9,13.2,9.3,13C9.5,13,9.7,13,9.8,13c0.1,0,0.3,0,0.4-0.1c0.3-0.1,0.6-0.2,0.8-0.4
		c0.2-0.1,0.4-0.3,0.6-0.3c0.1,0,0.1,0,0.2,0c0.2-0.1,0.5-0.1,0.6-0.3c0-0.1,0.1-0.3,0.1-0.4c0-0.1,0-0.1,0-0.2
		c0.1-0.8,0.7-1.3,1.5-1.5c0.2,0,0.4-0.1,0.6-0.1c0.4,0,0.7-0.1,1-0.2c0.3-0.1,0.5-0.4,0.7-0.7c0,0,0.1-0.1,0.1-0.1
		c0.4-0.5,0.9-1.1,1.2-1.2c0.2-0.1,0.4,0,0.5,0.1c0.2,0.2,0.4,0.5,0.4,1c0,0.2,0,0.4,0,0.6c-0.1,0.2-0.2,0.4-0.4,0.5
		c-0.2,0.2-0.5,0.4-0.5,0.7c0,0.1,0,0.1,0,0.2c0,0.1,0,0.1,0,0.2c-0.1,0.3-0.2,0.4-0.4,0.6c-0.1,0.1-0.3,0.3-0.4,0.5l0,0
		c-0.1,0.3-0.2,0.5-0.3,0.7c0,0,0,0.1-0.1,0.1c-0.3,0.6-0.5,1-1,1.3c-0.3,0.2-0.5,0.4-0.6,0.8c0,0.1-0.1,0.2-0.1,0.3
		c-0.2,0.5-0.4,1-0.3,1.5c0,0.2,0.1,0.4,0.2,0.6c0.2,0.4,0.4,0.9,0.3,1.3c-0.1,0.5-0.6,0.6-1.1,0.7c-0.1,0-0.3,0.1-0.4,0.1
		c-0.3,0.1-0.6,0.3-0.8,0.5c-0.3,0.2-0.5,0.4-0.8,0.5c-0.3,0.1-0.8,0.2-1.5,0.2c-0.1,0-0.2,0-0.2,0c-0.2,0-0.4,0-0.6,0
		c-0.5,0.1-0.6,0.8-0.7,1.4c0,0.1,0,0.1,0,0.2c0,0,0,0,0,0.1c0,0.2-0.1,0.3,0,0.5c0.1,0.4,0.6,0.4,1.2,0.4c0.2,0,0.5,0,0.7,0.1
		c0.4,0.1,0.6,0.3,0.8,0.5c0.1,0.1,0.2,0.2,0.3,0.3c0.2,0.1,0.3,0.2,0.5,0.3c0.4,0.2,0.7,0.4,0.8,0.7c0,0.1,0.1,0.3,0.1,0.5
		c0,0.1,0,0.2,0,0.3c0,0.2,0.1,0.3,0.2,0.4c0.2,0.1,0.5,0.2,0.7,0.1c0.7-0.2,0.8-1,1-1.7c0-0.1,0-0.2,0.1-0.3
		c0.1-0.6,0.3-0.7,0.9-0.8c0.6-0.1,0.9-0.3,1-0.8c0.1-0.4,0-0.7,0-1.1c0,0,0-0.1,0-0.1c0-0.3-0.1-0.6,0-0.9c0.1-0.4,0.3-0.8,0.5-1.1
		c0.1-0.3,0.3-0.5,0.4-0.8c0.2-0.4,0.6-0.6,1-0.7c0.1-0.1,0.3-0.1,0.4-0.2c0.5-0.2,1-0.3,1.6-0.3c0.1,0,0.1,0,0.2,0
		c0.3,0,0.6-0.1,0.9-0.2c0.2,0,0.3-0.1,0.5-0.1c0.5-0.1,1-0.4,1.2-0.9c0.1-0.3,0.2-0.5,0.2-0.8c0-0.1,0-0.1,0-0.2c0-0.1,0-0.1,0-0.2
		c0-0.1,0-0.2,0.1-0.3c0-0.1,0-0.1,0.1-0.2c0.1-0.5-0.2-0.9-0.4-1.2c-0.2-0.2-0.3-0.4-0.4-0.7c-0.1-0.2-0.1-0.7-0.1-1.1
		c0-0.1,0-0.1,0-0.2c0-0.3,0-0.7,0.3-1c0.2-0.2,0.4-0.3,0.6-0.5l0,0c0.1-0.1,0.2-0.2,0.4-0.3c0.3-0.2,0.6-0.5,1-0.6
		C25.9,8.5,26.3,8.6,26.8,8.6c0.1,0.1,0.2,0.1,0.4,0.1c0.1,0,0.2,0,0.3,0.1V8.7c-0.1,0-0.2-0.1-0.3-0.1C27,8.6,26.9,8.6,26.8,8.6z"
		/>
	<path class="st2" d="M26.4,14.4c-0.1,0-0.3,0-0.4,0c-0.4,0-0.4,0.2-0.6,0.4c0,0,0,0.1-0.1,0.1c0,0-0.1,0.1-0.1,0.1
		c-0.2,0.2-0.3,0.4-0.4,0.8c0,0.3,0.1,0.5,0.3,0.8c0,0,0,0.1,0.1,0.1c0,0,0,0.1,0.1,0.1c0.3,0.4,0.7,1,0.5,1.4
		c-0.3,0.5-1.1,0.3-1.6,0.2l0,0c0,0-0.1,0-0.1,0c-0.4-0.1-0.8-0.2-1,0.1l-0.1,0.1c-0.3,0.4-0.5,0.8-0.6,1.2
		c-0.1,0.4-0.1,0.9-0.1,1.3c0,0.3,0.2,0.6,0.3,0.9c0.2,0.4,0.4,0.8,0.3,1.1c-0.1,0.3-0.4,0.6-0.7,0.8c-0.2,0.1-0.3,0.3-0.4,0.4
		c-0.1,0.1-0.1,0.1-0.2,0.2c-0.2,0.3-0.5,0.6-0.6,0.9c0,0.1-0.1,0.2-0.1,0.3c-0.1,0.2-0.2,0.4-0.2,0.6c-0.1,0.4-0.2,0.8-0.3,1.3
		c0,0,0,0,0,0h0.1c0.1-0.4,0.2-0.8,0.3-1.2c0.1-0.2,0.2-0.4,0.2-0.6c0-0.1,0.1-0.2,0.1-0.3c0.1-0.4,0.4-0.6,0.6-0.9
		c0.1-0.1,0.1-0.1,0.2-0.2c0.1-0.2,0.3-0.3,0.4-0.4c0.3-0.2,0.5-0.5,0.7-0.8c0.2-0.4-0.1-0.8-0.3-1.2c-0.1-0.3-0.3-0.6-0.3-0.8
		c-0.1-0.5,0-0.9,0.1-1.3c0.1-0.4,0.4-0.8,0.6-1.2l0.1-0.1c0.1-0.2,0.5-0.1,0.9-0.1c0.1,0,0.1,0,0.1,0l0,0c0.5,0.1,1.4,0.3,1.7-0.3
		c0.3-0.5-0.2-1.1-0.5-1.5c0,0,0-0.1-0.1-0.1c0,0,0-0.1-0.1-0.1c-0.2-0.2-0.3-0.4-0.3-0.7c0-0.4,0.2-0.5,0.3-0.7
		c0,0,0.1-0.1,0.1-0.1c0,0,0.1-0.1,0.1-0.1c0.2-0.2,0.2-0.3,0.6-0.3C26.1,14.5,26.2,14.5,26.4,14.4c0.2,0.1,0.4,0,0.6,0
		c0.2,0,0.3-0.1,0.5-0.1v-0.1c-0.2,0-0.3,0.1-0.5,0.1C26.8,14.4,26.6,14.4,26.4,14.4z"/>
	<path class="st2" d="M19.4,27.2c0.5-0.3,0.7-0.7,0.8-1.2c0-0.1,0.1-0.2,0.1-0.3c0-0.1,0.1-0.2,0.1-0.4c0.1-0.3,0.2-0.6,0.4-1l0,0
		c0.1-0.1,0.1-0.2,0.2-0.3c0.1-0.1,0.2-0.2,0.3-0.4l0-0.1c0.1-0.1,0.1-0.2,0.2-0.3c0.1-0.1,0.2-0.2,0.2-0.4c0.1-0.2,0-0.5,0-0.7
		c0-0.1,0-0.2-0.1-0.2c-0.1-0.3,0-0.6,0-0.9c0-0.1,0-0.3,0.1-0.4c0-0.1,0-0.3,0-0.4c0-0.2,0-0.4,0-0.5c0-0.2,0.1-0.4,0.2-0.6
		c0.1-0.1,0.1-0.3,0.2-0.4c0.1-0.2,0.1-0.5-0.1-0.7c-0.1-0.1-0.3-0.1-0.5-0.1c0,0-0.1,0-0.1,0c-0.1,0-0.2,0-0.3-0.1
		c-0.1,0-0.2-0.1-0.3-0.1c-0.3-0.1-0.8,0-1,0c-0.3,0.1-0.8,0.2-1,0.4c-0.2,0.2-0.4,0.5-0.5,0.7c-0.1,0.1-0.1,0.2-0.2,0.3
		c0,0,0,0.1,0,0.1c-0.3,0.4-0.5,0.8-0.5,1.7c0,0.2,0.1,0.8,0.2,1.2c0.1,0.2,0.2,0.4,0.3,0.5c0.2,0.2,0.3,0.4,0.3,0.7
		c0,0.2-0.1,0.3-0.2,0.4c-0.1,0.1-0.2,0.1-0.4,0.1c-0.1,0-0.2-0.1-0.3-0.1c-0.1,0-0.2-0.1-0.3-0.1c-0.3-0.1-0.5-0.1-0.7,0
		c-0.7,0.2-0.8,0.9-1,1.6c0,0.1,0,0.1,0,0.2c-0.2,0.7-0.5,1.2-1,1.6c0,0-0.1,0.1-0.1,0.1c0,0-0.1,0-0.1,0.1
		c-0.2,0.2-0.4,0.3-0.5,0.5h0.1c0.1-0.1,0.3-0.3,0.5-0.4c0,0,0,0,0.1-0.1c0,0,0.1-0.1,0.1-0.1c0.5-0.4,0.8-0.9,1-1.6
		c0-0.1,0-0.1,0-0.2c0.2-0.7,0.3-1.3,1-1.5c0.2-0.1,0.4-0.1,0.7,0c0.1,0,0.2,0.1,0.3,0.1c0.1,0,0.2,0.1,0.3,0.1c0.2,0,0.3,0,0.4-0.1
		c0.1-0.1,0.2-0.3,0.3-0.4c0.1-0.3-0.1-0.5-0.3-0.8c-0.1-0.2-0.2-0.3-0.3-0.5c-0.1-0.4-0.2-1-0.2-1.2c-0.1-0.8,0.2-1.2,0.4-1.6
		c0,0,0-0.1,0.1-0.1c0.1-0.1,0.1-0.2,0.2-0.3c0.1-0.3,0.3-0.6,0.5-0.7c0.2-0.2,0.7-0.3,1-0.4c0.2,0,0.6-0.1,0.9,0
		c0.1,0,0.2,0,0.3,0.1c0.1,0,0.2,0.1,0.3,0.1c0,0,0.1,0,0.1,0c0.1,0,0.3,0,0.4,0.1c0.2,0.1,0.1,0.5,0.1,0.6c0,0.1-0.1,0.2-0.1,0.4
		c-0.1,0.2-0.2,0.4-0.2,0.6c0,0.2,0,0.4,0,0.5c0,0.1,0,0.3,0,0.4c0,0.1,0,0.3-0.1,0.4c0,0.3-0.1,0.6,0,0.9c0,0.1,0,0.2,0.1,0.2
		c0.1,0.2,0.1,0.4,0,0.7c-0.1,0.1-0.1,0.2-0.2,0.4c-0.1,0.1-0.1,0.2-0.2,0.3l0,0.1c-0.1,0.2-0.1,0.3-0.3,0.4
		c-0.1,0.1-0.2,0.2-0.2,0.3l0,0c-0.2,0.3-0.3,0.7-0.4,1c0,0.1-0.1,0.3-0.1,0.4c0,0.1-0.1,0.2-0.1,0.3C20,26.5,19.8,26.9,19.4,27.2
		c-0.1,0-0.2,0-0.3,0.1c-0.1,0.1-0.2,0.2-0.4,0.2c-0.2,0-0.4-0.2-0.6-0.4c0-0.1-0.1-0.1-0.1-0.2c-0.1-0.1-0.2-0.3-0.3-0.4
		c-0.1-0.1-0.1-0.3-0.1-0.4c0-0.1,0-0.2-0.1-0.3c-0.1-0.6-0.2-1.4-0.9-1.3l0,0l0,0c-0.3,0.2-0.4,0.6-0.5,0.9l0,0
		c-0.2,0.6-0.3,1.1-0.6,1.5c-0.1,0.1-0.1,0.2-0.2,0.2c-0.1,0.1-0.2,0.2-0.2,0.3h0.1c0.1-0.1,0.1-0.2,0.2-0.2
		c0.1-0.1,0.1-0.2,0.2-0.2c0.3-0.4,0.5-0.9,0.6-1.5l0,0c0.1-0.3,0.2-0.7,0.5-0.9c0.6,0,0.7,0.6,0.9,1.2c0,0.1,0,0.2,0.1,0.3
		c0,0.2,0.1,0.3,0.1,0.4c0.1,0.2,0.2,0.3,0.3,0.4c0,0,0.1,0.1,0.1,0.1c0.1,0.1,0.2,0.3,0.4,0.4h0.3c0.1,0,0.2-0.1,0.3-0.2
		C19.2,27.3,19.3,27.3,19.4,27.2z"/>
	<path class="st1" d="M0.8,14.7c0.5-0.2,0.9-0.3,1.5-0.2c0.6,0.1,1.1,0.1,1.6,0c0.7-0.2,0.8-0.8,0.8-1.7c0,0,0-0.1,0-0.1
		c0-0.1,0-0.3,0-0.4c-0.1-0.5-0.5-0.6-0.9-0.7c-0.3-0.1-0.6-0.1-0.9-0.1c-0.2,0-0.4,0-0.6,0c-0.2,0-0.3-0.1-0.4-0.2
		c-0.1-0.2-0.1-0.4,0-0.7C2,9.8,1.8,9.3,1.4,8.9C1.1,8.6,0.7,8.4,0.2,8.3v0.1C0.7,8.5,1.1,8.6,1.4,9c0.4,0.4,0.5,0.8,0.4,1.7
		c-0.1,0.3-0.1,0.6,0.1,0.8c0.1,0.1,0.2,0.2,0.4,0.2c0.2,0,0.4,0,0.6,0c0.3,0,0.6,0,0.9,0.1c0.4,0.1,0.8,0.2,0.9,0.6
		c0,0.1,0,0.2,0,0.4c0,0,0,0.1,0,0.1c0,1-0.1,1.5-0.7,1.6c-0.4,0.1-1,0.1-1.5,0C1.7,14.3,1.2,14.5,0.8,14.7c-0.2,0-0.4,0-0.5,0.1
		c0,0-0.1,0-0.1,0v0.1c0,0,0.1,0,0.1,0C0.5,14.8,0.6,14.8,0.8,14.7z"/>
	<path class="st2" d="M22.6,8.4C22.6,8.4,22.6,8.3,22.6,8.4C22.6,8.3,22.6,8.3,22.6,8.4c-0.1-0.1-0.3-0.2-0.5-0.2
		c-0.1,0-0.1,0-0.2,0c-0.6-0.1-1.1-0.4-1.6-0.6c-0.2-0.1-0.4-0.2-0.6-0.3l-0.1,0c-0.5-0.2-0.9-0.4-1.3-0.8c-0.3-0.3-0.5-0.7-0.5-1.1
		c-0.1-0.6,0.1-0.8,0.4-1.1C18.3,4.1,18.3,4,18.4,4c0.1-0.2,0.2-0.3,0.1-0.6c-0.1-0.2-0.3-0.4-0.5-0.6c0,0-0.1-0.1-0.1-0.1
		c-0.2-0.1-0.3-0.3-0.5-0.4C17.2,2,17,1.7,16.7,1.6c-0.3-0.1-0.6,0-0.9,0.2c-0.3,0.2-0.5,0.5-0.6,0.8c0,0.1,0,0.3,0,0.4
		c0,0.2,0,0.3,0,0.5c-0.1,0.4-0.5,0.6-0.8,0.8c-0.3,0.1-0.7,0.3-1,0.5C12.9,5,12.4,5.3,12,5.4c-0.5,0.1-0.9,0-1.3-0.2
		c-0.2-0.1-0.3-0.1-0.4-0.1C9.8,5,9.4,5.2,9.4,5.6c0,0.1,0,0.2,0,0.4c0,0.1,0,0.2,0,0.3C9.2,6.6,9.1,6.9,8.9,7.2
		C8.8,7.5,8.6,7.8,8.5,8.1c0,0.1,0,0.3-0.1,0.5c0,0.2,0,0.5-0.1,0.6C8.3,9.5,8.2,9.8,8.1,10c-0.1,0.2-0.2,0.3-0.2,0.5
		c0,0.1,0,0.1-0.1,0.2C7.7,11,7.5,11.4,7,11.3c-0.5-0.1-1-0.5-1.2-1C5.8,10,5.7,9.4,5.8,9c0.1-0.4,0.3-1,0.7-1.3
		c0.1-0.1,0.3-0.2,0.4-0.2C7.1,7.4,7.3,7.3,7.5,7c0.2-0.3,0.4-1,0.2-1.7C7.7,5.1,7.7,4.9,7.6,4.7C7.5,4.5,7.4,4.3,7.3,4
		c0-0.2-0.1-0.4,0-0.7c0-0.1,0.1-0.3,0.1-0.4l0-0.1c0.1-0.5,0.3-1.1,0.8-1.2C8.5,1.6,8.7,1.8,8.9,2c0.2,0.1,0.3,0.3,0.5,0.3
		c0.4,0.2,0.9,0,1.3-0.1c0.2,0,0.3-0.1,0.5-0.1C11.5,2,11.6,2,11.8,2c0.3,0,0.5-0.1,0.8-0.2C13,1.7,13.2,1.4,13.4,1
		c0.2-0.4,0.3-0.6,0.5-0.8h-0.1c-0.2,0.2-0.3,0.4-0.4,0.8c-0.2,0.5-0.4,0.7-0.8,0.8c-0.2,0.1-0.5,0.1-0.8,0.2
		c-0.2,0-0.4,0.1-0.6,0.1c-0.2,0-0.3,0.1-0.5,0.1c-0.5,0.1-0.9,0.3-1.3,0.1C9.3,2.2,9.1,2,9,1.9C8.8,1.7,8.5,1.5,8.2,1.6
		C7.7,1.7,7.5,2.3,7.3,2.8l0,0.1c0,0.2-0.1,0.3-0.1,0.4c0,0.2,0,0.6,0,0.7c0.1,0.2,0.2,0.4,0.2,0.6c0.1,0.2,0.2,0.4,0.2,0.7
		c0.1,0.6,0,1.3-0.2,1.6C7.3,7.2,7.1,7.3,6.9,7.4C6.7,7.5,6.6,7.5,6.4,7.7C6,7.9,5.8,8.6,5.7,9c-0.1,0.4,0,1,0.1,1.3
		c0.1,0.5,0.6,0.9,1.2,1c0.6,0.1,0.7-0.3,0.9-0.7c0,0,0-0.1,0.1-0.1c0.1-0.2,0.1-0.3,0.2-0.5c0.1-0.3,0.2-0.5,0.3-0.8
		c0-0.2,0.1-0.4,0.1-0.6c0-0.2,0-0.4,0.1-0.5C8.7,7.8,8.8,7.6,9,7.3c0.2-0.3,0.3-0.7,0.4-1.1c0-0.1,0-0.2,0-0.3c0-0.1,0-0.2,0-0.4
		c0.1-0.4,0.5-0.4,0.8-0.4c0.1,0,0.3,0.1,0.4,0.1C11,5.5,11.5,5.6,12,5.5c0.5-0.1,0.9-0.4,1.4-0.7c0.3-0.2,0.7-0.4,1-0.5
		c0.4-0.1,0.8-0.4,0.9-0.8c0-0.2,0-0.3,0-0.5c0-0.1,0-0.3,0-0.4c0-0.3,0.2-0.5,0.5-0.7c0.3-0.2,0.6-0.2,0.8-0.1
		c0.3,0.1,0.5,0.3,0.7,0.6c0.1,0.1,0.3,0.3,0.5,0.4c0,0,0.1,0.1,0.1,0.1c0.2,0.2,0.4,0.4,0.5,0.6c0.1,0.2,0,0.4-0.1,0.5
		c-0.1,0.1-0.1,0.2-0.2,0.2c-0.2,0.3-0.5,0.6-0.4,1.2c0,0.4,0.2,0.8,0.6,1.1c0.4,0.4,0.8,0.6,1.3,0.8l0.1,0c0.2,0.1,0.4,0.2,0.6,0.3
		c0.5,0.3,1.1,0.5,1.7,0.6c0,0,0.1,0,0.2,0c0.2,0,0.3,0.1,0.4,0.1C22.5,8.3,22.5,8.3,22.6,8.4C22.5,8.4,22.5,8.4,22.6,8.4
		c-0.1,0.2-0.2,0.4-0.4,0.5c-0.1,0.1-0.2,0.1-0.3,0.1c0,0-0.1,0-0.1,0c-0.4,0-0.9,0.4-1.1,0.7c-0.1,0.2-0.2,0.4-0.3,0.5
		c0,0.1-0.1,0.2-0.1,0.3c-0.3,0.6-0.6,1-0.9,1.1c-0.1,0-0.2,0.1-0.2,0.1c-0.1,0.1-0.2,0.1-0.3,0.1c-0.1,0-0.3,0.1-0.4,0.1
		c-0.1,0-0.3,0.1-0.4,0.1c-0.8,0.3-1.1,0.9-1.5,1.8l0,0c0,0.1-0.1,0.2-0.1,0.3c-0.1,0.2-0.2,0.4-0.4,0.5c-0.2,0.2-0.3,0.4-0.4,0.7
		c0,0.2,0,0.4,0,0.5c0,0.1,0,0.2,0,0.3c0,0.3-0.1,0.6,0.1,0.9c0.1,0.2,0.2,0.4,0.4,0.6l0.1,0.1c0.1,0.1,0.1,0.2,0.1,0.3
		c0.1,0.1,0.1,0.3,0.3,0.4l0,0h0c0,0,0,0,0,0c0,0,0.1,0,0.1,0l0,0l0,0c0.1-0.1,0.2-0.3,0.3-0.4c0.1-0.1,0.2-0.3,0.3-0.4
		c0.3-0.3,0.5-0.5,0.8-0.7c0.6-0.4,1.2-0.7,1.8-0.8c0.6-0.1,1.3-0.2,1.9-0.1c0,0,0,0,0,0c0,0,0,0,0,0c0,0,0,0,0,0c0.2,0,0.2,0,0.2,0
		s0.1-0.1,0-0.1c-0.1,0-0.2,0-0.2,0h0c-0.7-0.2-1.4,0-2,0.1c-0.7,0.1-1.3,0.4-1.9,0.8c-0.3,0.2-0.5,0.4-0.8,0.7
		c-0.1,0.1-0.2,0.3-0.3,0.4c-0.1,0.1-0.2,0.3-0.3,0.4c0,0,0,0-0.1,0c-0.1-0.1-0.2-0.3-0.2-0.4c0-0.1-0.1-0.2-0.1-0.3l-0.1-0.1
		c-0.1-0.2-0.3-0.4-0.4-0.6c-0.2-0.3-0.1-0.6-0.1-0.9c0-0.1,0-0.2,0-0.3c0-0.2,0-0.3,0-0.5c0-0.2,0.2-0.4,0.4-0.7
		c0.1-0.2,0.3-0.3,0.4-0.5c0-0.1,0.1-0.2,0.1-0.3l0,0c0.3-0.9,0.7-1.5,1.4-1.7c0.1,0,0.3-0.1,0.4-0.1c0.1,0,0.3-0.1,0.4-0.1
		c0.1,0,0.2-0.1,0.3-0.1c0.1,0,0.1-0.1,0.2-0.1c0.3-0.1,0.6-0.5,0.9-1.1c0-0.1,0.1-0.2,0.1-0.3c0.1-0.2,0.2-0.4,0.3-0.5
		C21,9.4,21.4,9,21.8,9c0,0,0.1,0,0.1,0c0.1,0,0.2,0,0.4-0.1C22.5,8.8,22.6,8.6,22.6,8.4L22.6,8.4L22.6,8.4z"/>
	<path class="st2" d="M27.4,16.3c-0.2-0.1-0.4-0.2-0.4-0.3c0-0.1,0.1-0.3,0.4-0.4v0c-0.3,0.1-0.4,0.3-0.4,0.4
		C27.1,16.1,27.2,16.2,27.4,16.3L27.4,16.3z"/>
</g>
</svg>
